<?xml version="1.0" standalone="no"?>
<!DOCTYPE svg PUBLIC "-//W3C//DTD SVG 1.1//EN" "http://www.w3.org/Graphics/SVG/1.1/DTD/svg11.dtd" >
<svg>
<metadata>
Created by FontForge 20110222 at Tue Jun 25 07:00:11 2013
 By Orthosie Webhosting
Copyright (c) 1989, 1995 Adobe Systems Incorporated.  All Rights Reserved.Avenir is a trademark of Linotype-Hell AG and/or its subsidiaries.
</metadata>
<defs>
<font id="AvenirRegular" horiz-adv-x="520" >
  <font-face 
    font-family="AvenirRegular"
    font-weight="300"
    font-stretch="normal"
    units-per-em="1000"
    panose-1="2 0 4 3 3 0 0 2 0 3"
    ascent="800"
    descent="-200"
    x-height="462"
    cap-height="708"
    bbox="-167 -250 1000 932"
    underline-thickness="50"
    underline-position="-75"
    unicode-range="U+0001-2122"
  />
<missing-glyph horiz-adv-x="260" 
 />
    <glyph glyph-name=".notdef" horiz-adv-x="260" 
 />
    <glyph glyph-name=".null" horiz-adv-x="0" 
 />
    <glyph glyph-name="nonmarkingreturn" horiz-adv-x="500" 
 />
    <glyph glyph-name="Eth" horiz-adv-x="741" 
d="M154 648h136q71 0 132 -17.5t106 -53.5t70.5 -91.5t25.5 -131.5t-25.5 -131.5t-70.5 -91.5t-106 -53.5t-132 -17.5h-136v282h258v54h-258v252zM88 0h219q92 0 156 22.5t106.5 57.5t67 77.5t36 81.5t14.5 70.5t3 44.5t-3 44.5t-14.5 70.5t-36 81.5t-67 77.5t-106.5 57.5
t-156 22.5h-219v-312h-78v-54h78v-342z" />
    <glyph glyph-name="eth" horiz-adv-x="594" 
d="M149 604l31 -33l107 57q37 -33 80 -86.5t81 -120.5l-2 -2q-32 29 -69.5 42t-79.5 13q-53 0 -97.5 -18t-77 -50.5t-50.5 -77t-18 -97.5t18 -97.5t50.5 -77t77 -50.5t97.5 -18t98 18.5t77 53t50 84.5t18 112q0 78 -23 143t-55 115.5t-66 86.5t-56 56l106 57l-36 30
l-104 -56q-20 20 -46 41.5t-49 38.5l-52 -30q19 -14 45 -35.5t49 -42.5zM114 231q0 39 12.5 73.5t36.5 60t58 40.5t76 15t76 -15t58 -40.5t36.5 -60t12.5 -73.5t-12.5 -73.5t-36.5 -60t-58 -40.5t-76 -15t-76 15t-58 40.5t-36.5 60t-12.5 73.5z" />
    <glyph glyph-name="Lslash" horiz-adv-x="500" 
d="M97 0h396v60h-330v228l216 189v62l-216 -189v358h-66v-413l-72 -63v-65l72 64v-231z" />
    <glyph glyph-name="lslash" horiz-adv-x="240" 
d="M90 0h60v385l84 85v67l-84 -86v305h-60v-365l-84 -85v-67l84 85v-324z" />
    <glyph glyph-name="Scaron" horiz-adv-x="556" 
d="M53 89q42 -58 101 -82.5t129 -24.5q43 0 83 13t70.5 38.5t48.5 62.5t18 85q0 50 -15.5 83t-41.5 54.5t-58.5 34.5t-67 23.5t-67 21t-58.5 27t-41.5 42t-15.5 65.5q0 34 13 59t34.5 41.5t50.5 25t61 8.5q46 0 79.5 -17.5t58.5 -52.5l57 41q-36 48 -85.5 68.5t-107.5 20.5
q-45 0 -86 -12.5t-72.5 -37t-50 -61t-18.5 -83.5q0 -50 15.5 -84t41.5 -56.5t58.5 -36.5t67 -25t67 -22t58.5 -26.5t41.5 -39.5t15.5 -61q0 -32 -12.5 -57.5t-34 -43.5t-50.5 -28t-62 -10q-53 0 -94.5 22t-67.5 67zM417 896h-54l-86 -114l-83 114h-62l109 -144h70z" />
    <glyph glyph-name="scaron" horiz-adv-x="426" 
d="M28 82q27 -48 76.5 -71t109.5 -23q33 0 63 9t53.5 27t37 44.5t13.5 62.5q0 47 -20.5 72.5t-50.5 39t-66 19.5t-66 14.5t-50.5 23.5t-20.5 46q0 18 9.5 32t23.5 23t31.5 14t33.5 5q41 0 66.5 -16.5t42.5 -48.5l54 32q-23 45 -64.5 66t-98.5 21q-28 0 -56.5 -8t-51 -24.5
t-36.5 -41.5t-14 -59q0 -44 20.5 -68t50.5 -37.5t66 -20t66 -15.5t50.5 -25t20.5 -48q0 -20 -9 -35.5t-24 -26.5t-34 -17t-39 -6q-41 0 -78 19.5t-56 56.5zM352 708h-54l-86 -114l-83 114h-62l109 -144h70z" />
    <glyph glyph-name="Yacute" horiz-adv-x="574" 
d="M254 0h66v305l260 403h-74l-219 -336l-214 336h-79l260 -403v-305zM229 752h50l134 144h-80z" />
    <glyph glyph-name="yacute" horiz-adv-x="463" 
d="M448 462h-64l-149 -389l-153 389h-67l188 -464l-42 -107q-5 -14 -11.5 -27.5t-15.5 -24.5t-21 -18t-29 -7q-14 0 -27.5 3.5t-26.5 7.5l-6 -56q14 -4 29 -6.5t30 -2.5q50 0 80 26t47 71zM174 564h50l134 144h-80z" />
    <glyph glyph-name="Thorn" horiz-adv-x="574" 
d="M97 0h66v180h153q42 0 80.5 11t68 33.5t47 57.5t17.5 83q0 56 -21.5 92t-55 57t-73.5 29.5t-78 8.5h-139v156h-65v-708zM163 492h146q29 0 56.5 -7t49 -22.5t35 -39.5t13.5 -58q0 -35 -13 -59t-34 -38.5t-48 -21t-55 -6.5h-150v252z" />
    <glyph glyph-name="thorn" horiz-adv-x="611" 
d="M67 -228h60v309h2q14 -24 35 -41.5t45.5 -29t51.5 -17t53 -5.5q53 0 98 18t77 50.5t50 77t18 97.5t-18 97.5t-50 77t-77 50.5t-98 18q-26 0 -53 -5.5t-51.5 -17t-45.5 -29t-35 -41.5h-2v375h-60v-984zM121 231q0 39 15 73.5t41 60t61 40.5t76 15q42 0 76 -15t58 -40.5
t36.5 -60t12.5 -73.5t-12.5 -73.5t-36.5 -60t-58 -40.5t-76 -15q-41 0 -76 15t-61 40.5t-41 60t-15 73.5z" />
    <glyph glyph-name="Zcaron" horiz-adv-x="556" 
d="M23 0h510v60h-428l417 594v54h-493v-60h408l-414 -596v-52zM417 896h-54l-86 -114l-83 114h-62l109 -144h70z" />
    <glyph glyph-name="zcaron" horiz-adv-x="426" 
d="M27 0h372v54h-288l276 372v36h-346v-54h263l-277 -372v-36zM352 708h-54l-86 -114l-83 114h-62l109 -144h70z" />
    <glyph glyph-name="onehalf" horiz-adv-x="778" 
d="M138 289h54v425h-54l-110 -86l25 -34l85 66v-371zM106 -6l45 -28l457 748l-46 28zM458 0h292v48h-220l127 121q18 17 34.5 34t29 35t20.5 39t8 45q0 52 -39 80.5t-97 28.5q-19 0 -40.5 -5.5t-41 -17.5t-35 -31.5t-22.5 -48.5l51 -4q8 23 28 41t58 18q40 0 62 -17.5
t22 -45.5q0 -35 -19 -59t-46 -50l-172 -168v-43z" />
    <glyph glyph-name="onequarter" horiz-adv-x="778" 
d="M146 289h54v425h-54l-110 -86l25 -34l85 66v-371zM115 -6l45 -28l457 748l-46 28zM624 0h54v102h64v48h-64v274h-59l-185 -277v-45h190v-102zM624 150h-136l134 202h2v-202z" />
    <glyph glyph-name="onesuperior" horiz-adv-x="338" 
d="M177 289h54v425h-54l-110 -86l25 -34l85 66v-371z" />
    <glyph glyph-name="threequarters" horiz-adv-x="778" 
d="M121 488h17q22 0 42.5 -4t36 -13t25 -24.5t9.5 -39.5q0 -15 -8 -28.5t-20.5 -24t-29 -17t-33.5 -6.5q-39 0 -60 16t-32 43l-48 -18q19 -48 55 -68.5t85 -20.5q31 0 57.5 8.5t46 24t30.5 38t11 50.5q0 41 -25 71t-69 36v2q35 11 58.5 37.5t23.5 61.5q0 25 -10 45t-28 34
t-42 21.5t-51 7.5q-43 0 -75 -20.5t-52 -52.5l39 -25q14 23 36.5 36.5t51.5 13.5q35 0 56 -17.5t21 -43.5q0 -21 -9 -35t-23 -22.5t-31 -12.5t-32 -5h-23v-48zM166 -6l45 -28l457 748l-46 28zM640 0h54v102h64v48h-64v274h-59l-185 -277v-45h190v-102zM638 150h-136l134 202
h2v-202z" />
    <glyph glyph-name="threesuperior" horiz-adv-x="338" 
d="M127 488h17q22 0 42.5 -4t36 -13t25 -24.5t9.5 -39.5q0 -15 -8 -28.5t-20.5 -24t-29 -17t-33.5 -6.5q-39 0 -60 16t-32 43l-47 -18q18 -48 54 -68.5t85 -20.5q31 0 57.5 8.5t46 24t30.5 38t11 50.5q0 41 -25 71t-69 36v2q35 11 58.5 37.5t23.5 61.5q0 25 -10 45t-28 34
t-42 21.5t-51 7.5q-43 0 -75 -20.5t-52 -52.5l39 -25q14 23 36.5 36.5t51.5 13.5q35 0 56 -17.5t21 -43.5q0 -21 -9 -35.5t-23 -23t-31 -12.5t-32 -4h-23v-48z" />
    <glyph glyph-name="twosuperior" horiz-adv-x="338" 
d="M23 289h292v48h-220l127 121q18 17 34.5 34t29 35t20.5 39t8 45q0 52 -39 80.5t-97 28.5q-19 0 -40.5 -5.5t-41 -17.5t-35 -31.5t-22.5 -48.5l51 -4q8 23 28 41t58 18q40 0 62 -17.5t22 -45.5q0 -35 -19 -59t-46 -50l-172 -168v-43z" />
    <glyph glyph-name="brokenbar" horiz-adv-x="222" 
d="M87 675v-350h48v350h-48zM87 175v-350h48v350h-48z" />
    <glyph glyph-name="minus" horiz-adv-x="666" 
d="M78 279h510v48h-510v-48z" />
    <glyph glyph-name="multiply" horiz-adv-x="666" 
d="M136 535l-34 -34l198 -198l-200 -198l35 -34l199 199l197 -199l34 34l-198 198l199 198l-33 34l-199 -198z" />
    <glyph glyph-name="space" unicode=" " horiz-adv-x="260" 
 />
    <glyph glyph-name="exclam" unicode="!" horiz-adv-x="370" 
d="M215 708h-60v-522h60v522zM137 42q0 -20 14 -34t34 -14t34 14t14 34t-14 34t-34 14t-34 -14t-14 -34z" />
    <glyph glyph-name="quotedbl" unicode="&#x22;" 
d="M161 480h60v228h-60v-228zM299 480h60v228h-60v-228z" />
    <glyph glyph-name="numbersign" unicode="#" 
d="M91 0h52l30 229h139l-30 -229h52l30 229h115v48h-108l21 156h115v48h-108l31 227h-52l-31 -227h-139l31 227h-52l-30 -227h-115v-48h108l-22 -156h-115v-48h108zM319 277h-138l21 156h138z" />
    <glyph glyph-name="dollar" unicode="$" 
d="M281 314l43 -16q27 -10 44.5 -23t27 -28t13.5 -31t4 -31q0 -30 -10 -55.5t-28 -44.5t-42 -30.5t-52 -12.5v272zM233 400l-17 6q-47 17 -75 44t-28 80q0 29 10 52t26.5 40.5t38 28.5t45.5 15v-266zM233 -79h48v67q38 2 74 16.5t63.5 39.5t44 59.5t16.5 77.5q0 40 -11.5 70
t-30 51.5t-41 35.5t-45.5 22l-70 24v282q36 0 71.5 -19.5t58.5 -55.5l55 40q-19 27 -41 44.5t-45.5 27.5t-48.5 13.5t-50 3.5v67h-48v-67q-33 -3 -66 -18t-60 -40t-43.5 -59.5t-16.5 -76.5q0 -16 4 -39.5t16.5 -47.5t35 -45.5t59.5 -35.5l71 -26v-290q-43 2 -81 25.5
t-62 64.5l-57 -39q18 -26 41 -45.5t49.5 -33t54.5 -20t55 -6.5v-67z" />
    <glyph glyph-name="percent" unicode="%" horiz-adv-x="815" 
d="M158 -6l45 -28l457 748l-46 28zM38 548q0 -36 13.5 -67t37 -54.5t54.5 -37t67 -13.5t67 13.5t54.5 37t37 54.5t13.5 67t-13.5 67t-37 54.5t-54.5 37t-67 13.5t-67 -13.5t-54.5 -37t-37 -54.5t-13.5 -67zM92 548q0 25 9.5 46.5t25.5 37.5t37.5 25t45.5 9t45.5 -9t37.5 -25
t25.5 -37.5t9.5 -46.5t-9.5 -46.5t-25.5 -37.5t-37.5 -25t-45.5 -9t-45.5 9t-37.5 25t-25.5 37.5t-9.5 46.5zM433 160q0 -36 13.5 -67t37 -54.5t54.5 -37t67 -13.5t67 13.5t54.5 37t37 54.5t13.5 67t-13.5 67t-37 54.5t-54.5 37t-67 13.5t-67 -13.5t-54.5 -37t-37 -54.5
t-13.5 -67zM487 160q0 25 9.5 46.5t25.5 37.5t37.5 25t45.5 9t45.5 -9t37.5 -25t25.5 -37.5t9.5 -46.5t-9.5 -46.5t-25.5 -37.5t-37.5 -25t-45.5 -9t-45.5 9t-37.5 25t-25.5 37.5t-9.5 46.5z" />
    <glyph glyph-name="ampersand" unicode="&#x26;" horiz-adv-x="704" 
d="M315 388q30 16 58 33t50.5 39t36 50t13.5 66q0 34 -13 61.5t-35.5 47t-51 30.5t-60.5 11q-35 0 -67.5 -11t-57 -31.5t-39 -50.5t-14.5 -68q0 -24 8 -46.5t20 -43.5t27.5 -40.5t30.5 -37.5q-31 -19 -60 -38.5t-51.5 -43.5t-36.5 -55t-14 -72q0 -47 17 -85t46 -65
t68.5 -41.5t84.5 -14.5q74 0 125.5 34.5t94.5 92.5l106 -114h89l-161 169l128 226h-68l-102 -184zM308 666q43 0 71 -26.5t28 -68.5q0 -28 -12.5 -49.5t-31.5 -38.5t-42 -30t-44 -24q-11 13 -24.5 29t-25 34t-19 37t-7.5 37q0 45 31 72.5t76 27.5zM455 151
q-15 -22 -33 -41.5t-39 -34.5t-45.5 -24t-52.5 -9q-33 0 -62.5 10.5t-51 30t-34 46.5t-12.5 61q0 32 12 56t31.5 43.5t43 35.5t47.5 30z" />
    <glyph glyph-name="quotesingle" unicode="'" horiz-adv-x="260" 
d="M100 480h60v228h-60v-228z" />
    <glyph glyph-name="parenleft" unicode="(" horiz-adv-x="260" 
d="M197 732q-66 -93 -102.5 -209t-36.5 -235q0 -57 9.5 -115t27.5 -115t44.5 -111.5t61.5 -102.5l47 30q-61 97 -95.5 197t-34.5 217q0 52 8 107.5t24.5 109.5t40.5 104t57 91z" />
    <glyph glyph-name="parenright" unicode=")" horiz-adv-x="260" 
d="M63 -156q66 93 102.5 209t36.5 235q0 57 -9.5 115t-27.5 115t-44.5 111.5t-61.5 102.5l-47 -30q62 -97 96 -197t34 -217q0 -52 -8 -107t-24.5 -109t-40.5 -104.5t-57 -91.5z" />
    <glyph glyph-name="asterisk" unicode="*" horiz-adv-x="444" 
d="M247 708h-48v-152l-147 48l-14 -45l146 -50l-91 -122l40 -29l89 125l94 -125l37 29l-91 122l144 47l-15 48l-144 -48v152z" />
    <glyph glyph-name="plus" unicode="+" horiz-adv-x="666" 
d="M78 279h231v-231h48v231h231v48h-231v231h-48v-231h-231v-48z" />
    <glyph glyph-name="comma" unicode="," horiz-adv-x="260" 
d="M50 -138h59l77 228h-70z" />
    <glyph glyph-name="hyphen" unicode="-" horiz-adv-x="333" 
d="M43 210h247v54h-247v-54z" />
    <glyph glyph-name="period" unicode="." horiz-adv-x="260" 
d="M82 42q0 -20 14 -34t34 -14t34 14t14 34t-14 34t-34 14t-34 -14t-14 -34z" />
    <glyph glyph-name="slash" unicode="/" horiz-adv-x="370" 
d="M9 -18l53 -18l303 762l-52 18z" />
    <glyph glyph-name="zero" unicode="0" 
d="M26 354q0 -38 3.5 -80.5t13 -83t26 -77t42.5 -64.5t62.5 -44.5t86.5 -16.5t86.5 16.5t62.5 44.5t42.5 64.5t26 77t13 83t3.5 80.5q0 39 -3.5 81t-13 82.5t-26 77.5t-42.5 64.5t-62.5 44t-86.5 16.5t-86.5 -16.5t-62.5 -44t-42.5 -64.5t-26 -77.5t-13 -83t-3.5 -80.5z
M92 354q0 28 2 61.5t8 68t17.5 67.5t30 58.5t46 41t64.5 15.5q38 0 65 -15.5t45.5 -41t30 -58.5t17.5 -67.5t8 -68.5t2 -61t-2 -61t-8 -68.5t-17.5 -67.5t-30 -58.5t-46 -41t-64.5 -15.5t-64.5 15.5t-46 41t-30 58.5t-17.5 67.5t-8 68.5t-2 61z" />
    <glyph glyph-name="one" unicode="1" 
d="M261 0h60v708h-51l-175 -143l37 -46l128 105h1v-624z" />
    <glyph glyph-name="two" unicode="2" 
d="M41 0h438v54h-372l221 227q27 28 53.5 56t47 59.5t33 66.5t12.5 76q0 43 -16.5 76.5t-44.5 57t-65 35.5t-78 12q-82 0 -140 -40.5t-75 -122.5l70 -7q11 52 49 84t93 32q61 0 101 -35t40 -97q0 -28 -9 -53.5t-23.5 -48t-32.5 -43t-36 -38.5l-266 -281v-70z" />
    <glyph glyph-name="three" unicode="3" 
d="M41 127q28 -72 83.5 -105.5t135.5 -33.5q55 0 96 16t68.5 43.5t41 64.5t13.5 79q0 34 -11 64t-31 54t-47.5 40.5t-61.5 22.5v2q62 17 94 61.5t32 102.5q0 46 -15.5 80t-42.5 56.5t-62.5 34t-76.5 11.5q-61 0 -111.5 -25t-79.5 -80l57 -32q20 38 55 60.5t79 22.5
q60 0 95.5 -36.5t35.5 -93.5q0 -36 -14 -61.5t-36.5 -41.5t-50.5 -23.5t-57 -7.5h-30v-60h26q34 0 67.5 -8t60 -25.5t43 -45.5t16.5 -67q0 -32 -10 -60t-29.5 -49t-49.5 -33t-69 -12q-60 0 -94.5 27.5t-54.5 78.5z" />
    <glyph glyph-name="four" unicode="4" 
d="M329 0h60v174h108v54h-108v480h-83l-283 -463v-71h306v-174zM329 228h-252l250 414h2v-414z" />
    <glyph glyph-name="five" unicode="5" 
d="M451 708h-350l-6 -361q30 21 66 34.5t74 13.5t70.5 -14.5t56.5 -39.5t37.5 -58.5t13.5 -71.5q0 -42 -16 -74t-40 -53t-52 -31.5t-52 -10.5t-47 7.5t-43 21t-35.5 31t-24.5 37.5l-62 -31q29 -56 81.5 -88t130.5 -32q39 0 79 14t73 42t53.5 71t20.5 100q0 48 -15.5 90.5
t-44 74.5t-69 50.5t-91.5 18.5q-26 0 -53 -4t-50 -16l3 225h292v54z" />
    <glyph glyph-name="six" unicode="6" 
d="M361 708h-76l-192 -319q-10 -18 -21.5 -38t-21.5 -42.5t-16 -47.5t-6 -53q0 -48 17.5 -88.5t48.5 -69.5t73.5 -45.5t92.5 -16.5t92.5 16.5t73.5 45.5t48.5 69.5t17.5 88.5q0 46 -16 85.5t-45 69t-69 46.5t-87 17q-26 0 -56.5 -7.5t-48.5 -22.5h-2zM260 374q35 0 65 -13
t52.5 -35.5t35.5 -52.5t13 -65q0 -37 -12 -67.5t-34 -52.5t-52.5 -34t-67.5 -12t-67.5 12t-52.5 34t-34 52.5t-12 67.5q0 35 13 65t35.5 52.5t53 35.5t64.5 13z" />
    <glyph glyph-name="seven" unicode="7" 
d="M443 708h-402v-54h340l-287 -654h67l282 654v54z" />
    <glyph glyph-name="eight" unicode="8" 
d="M66 536q0 -25 8 -49.5t22.5 -46t35.5 -37.5t47 -23v-1q-34 -7 -59.5 -24.5t-43 -42t-26.5 -54t-9 -61.5q0 -48 16.5 -86.5t46 -65.5t69.5 -42t87 -15t87 15t69.5 42t46 65.5t16.5 86.5q0 32 -9 61.5t-26.5 54t-43 42t-59.5 24.5v1q26 7 47 23t35.5 37.5t22.5 46t8 49.5
q0 41 -15 75t-41 58t-61.5 37.5t-76.5 13.5t-76.5 -13.5t-61.5 -37.5t-41 -58t-15 -75zM132 536q0 59 36.5 94.5t91.5 35.5t91.5 -35.5t36.5 -94.5q0 -27 -9.5 -50.5t-26 -41t-40 -28t-52.5 -10.5q-28 0 -52 10.5t-40.5 28t-26 41t-9.5 50.5zM107 197q0 35 12 63.5t32.5 49
t48.5 31.5t60 11t60 -11t48.5 -31.5t32.5 -49t12 -63.5q0 -32 -11 -60t-31 -49t-48 -33.5t-63 -12.5t-63 12.5t-48 33.5t-31 49t-11 60z" />
    <glyph glyph-name="nine" unicode="9" 
d="M159 0h76l192 319q11 18 22 38t21 42.5t16 47.5t6 53q0 48 -17.5 88.5t-48.5 69.5t-73.5 45.5t-92.5 16.5t-92.5 -16.5t-73.5 -45.5t-48.5 -69.5t-17.5 -88.5q0 -46 16 -85.5t45 -69t69 -46.5t87 -17q26 0 56.5 7.5t48.5 22.5h2zM260 334q-34 0 -64.5 13t-53 35.5
t-35.5 53t-13 64.5q0 37 12 67.5t34 52.5t52.5 34t67.5 12t67.5 -12t52.5 -34t34 -52.5t12 -67.5q0 -34 -13 -64.5t-35.5 -53t-52.5 -35.5t-65 -13z" />
    <glyph glyph-name="colon" unicode=":" horiz-adv-x="260" 
d="M82 420q0 -20 14 -34t34 -14t34 14t14 34t-14 34t-34 14t-34 -14t-14 -34zM82 42q0 -20 14 -34t34 -14t34 14t14 34t-14 34t-34 14t-34 -14t-14 -34z" />
    <glyph glyph-name="semicolon" unicode=";" horiz-adv-x="260" 
d="M50 -138h59l77 228h-70zM82 420q0 -20 14 -34t34 -14t34 14t14 34t-14 34t-34 14t-34 -14t-14 -34z" />
    <glyph glyph-name="less" unicode="&#x3c;" horiz-adv-x="666" 
d="M584 561l-502 -234v-48l502 -234v50l-448 208l448 208v50z" />
    <glyph glyph-name="equal" unicode="=" horiz-adv-x="666" 
d="M78 351h510v48h-510v-48zM78 207h510v48h-510v-48z" />
    <glyph glyph-name="greater" unicode="&#x3e;" horiz-adv-x="666" 
d="M82 45l502 234v48l-502 234v-50l448 -208l-448 -208v-50z" />
    <glyph glyph-name="question" unicode="?" horiz-adv-x="463" 
d="M204 186h60v64q0 35 12 59.5t30 44t39 38t39 40.5t30 51t12 71q0 41 -14 73t-38.5 54t-58.5 33.5t-73 11.5q-75 0 -128 -42.5t-67 -119.5l65 -8q11 52 44.5 84t86.5 32q55 0 86 -33.5t31 -87.5q0 -33 -11.5 -57t-29 -44.5t-37.5 -38.5t-37.5 -38t-29 -45t-11.5 -58v-84z
M187 42q0 -20 14 -34t34 -14t34 14t14 34t-14 34t-34 14t-34 -14t-14 -34z" />
    <glyph glyph-name="at" unicode="@" horiz-adv-x="800" 
d="M254 280q0 36 12.5 77t35.5 76t54.5 58t69.5 23q42 0 61.5 -27t19.5 -75q0 -33 -13 -72.5t-36 -74t-54 -57.5t-66 -23q-39 0 -61.5 26.5t-22.5 68.5zM622 549h-60l-24 -64h-2q-14 46 -43.5 64.5t-62.5 18.5q-55 0 -98.5 -26t-74 -67t-47 -93t-16.5 -104q0 -30 8.5 -56.5
t25.5 -47t42 -32t59 -11.5q39 0 74 21t55 46h2q0 -34 18 -50.5t44 -16.5q42 0 84 23t75.5 62.5t54 93.5t20.5 116q0 64 -26 119t-72 95t-108.5 63t-135.5 23q-77 0 -144.5 -28.5t-117.5 -79t-79 -118t-29 -145.5t28 -146t77.5 -118.5t118.5 -79.5t150 -29q47 0 93 12.5
t87 36t75 56.5t57 75h-58q-19 -29 -47.5 -53t-62 -41.5t-70.5 -27.5t-74 -10q-66 0 -124.5 26t-102 70t-68.5 103t-25 126q0 64 24 122.5t66.5 103t101 71t126.5 26.5q56 0 108 -18.5t91.5 -51.5t63 -79.5t23.5 -102.5q0 -42 -15.5 -85t-39.5 -77.5t-52.5 -56.5t-54.5 -22
q-17 0 -21.5 9t-4.5 17q0 6 3 19t8 29z" />
    <glyph glyph-name="A" unicode="A" horiz-adv-x="685" 
d="M5 0h69l80 188h375l77 -188h74l-298 708h-68zM505 248h-325l165 388z" />
    <glyph glyph-name="B" unicode="B" horiz-adv-x="630" 
d="M97 0h226q36 0 77.5 8t77 30t59 60.5t23.5 99.5q0 37 -11.5 68t-32.5 53.5t-50 36t-64 16.5v2q63 13 95 53t32 94q0 60 -20.5 96.5t-53 57t-73 27t-81.5 6.5h-204v-708zM163 648h146q32 0 60 -6t49 -20.5t33 -39t12 -61.5q0 -16 -6 -37t-24 -39t-50 -30.5t-83 -12.5h-137
v246zM163 342h161q32 0 62.5 -8t54.5 -25.5t38.5 -45.5t14.5 -67q0 -19 -6.5 -42.5t-25.5 -44.5t-54.5 -35t-93.5 -14h-151v282z" />
    <glyph glyph-name="C" unicode="C" horiz-adv-x="704" 
d="M626 152q-19 -28 -44 -49t-52.5 -34.5t-56.5 -20t-56 -6.5q-69 0 -124.5 24t-94.5 66t-60 99t-21 123t21 123t60 99t94.5 66t124.5 24q54 0 105.5 -23t84.5 -73l54 45q-47 60 -109.5 85.5t-134.5 25.5q-81 0 -148.5 -27.5t-115.5 -77t-75 -118t-27 -149.5t27 -149
t75 -117.5t115.5 -77.5t148.5 -28q78 0 145 30t118 99z" />
    <glyph glyph-name="D" unicode="D" horiz-adv-x="741" 
d="M88 0h219q92 0 156 22.5t106.5 57.5t67 77.5t36 81.5t14.5 70.5t3 44.5t-3 44.5t-14.5 70.5t-36 81.5t-67 77.5t-106.5 57.5t-156 22.5h-219v-708zM154 648h136q71 0 132 -17.5t106 -53.5t70.5 -91.5t25.5 -131.5t-25.5 -131.5t-70.5 -91.5t-106 -53.5t-132 -17.5h-136
v588z" />
    <glyph glyph-name="E" unicode="E" horiz-adv-x="593" 
d="M97 0h449v60h-383v276h344v60h-344v252h367v60h-433v-708z" />
    <glyph glyph-name="F" unicode="F" horiz-adv-x="556" 
d="M97 0h66v336h333v60h-333v252h358v60h-424v-708z" />
    <glyph glyph-name="G" unicode="G" horiz-adv-x="778" 
d="M681 382h-236v-60h170v-238q-41 -24 -91 -33t-107 -9q-69 0 -124.5 24t-94.5 66t-60 99t-21 123t21 123t60 99t94.5 66t124.5 24q29 0 59 -6.5t57.5 -18t51 -27.5t39.5 -36l48 50q-97 98 -255 98q-81 0 -148.5 -27.5t-115.5 -77t-75 -118t-27 -149.5t27 -149t75 -117.5
t115.5 -77.5t148.5 -28q69 0 135.5 14.5t128.5 49.5v336z" />
    <glyph glyph-name="H" unicode="H" horiz-adv-x="722" 
d="M97 0h66v336h396v-336h66v708h-66v-312h-396v312h-66v-708z" />
    <glyph glyph-name="I" unicode="I" horiz-adv-x="260" 
d="M97 0h66v708h-66v-708z" />
    <glyph glyph-name="J" unicode="J" horiz-adv-x="482" 
d="M385 708h-66v-516q0 -32 -7 -59.5t-22 -47.5t-39.5 -31.5t-59.5 -11.5q-94 0 -118 97l-66 -12q15 -66 60.5 -105.5t123.5 -39.5q69 0 107.5 23.5t58 58t24 73.5t4.5 71v500z" />
    <glyph glyph-name="K" unicode="K" horiz-adv-x="611" 
d="M97 0h66v366h6l359 -366h95l-378 384l358 324h-91l-343 -312h-6v312h-66v-708z" />
    <glyph glyph-name="L" unicode="L" horiz-adv-x="500" 
d="M97 0h396v60h-330v648h-66v-708z" />
    <glyph glyph-name="M" unicode="M" horiz-adv-x="889" 
d="M90 0h66v624h2l274 -624h29l270 624h2v-624h66v708h-94l-258 -594l-258 594h-99v-708z" />
    <glyph glyph-name="N" unicode="N" horiz-adv-x="778" 
d="M97 0h66v620h2l431 -620h85v708h-66v-620h-2l-431 620h-85v-708z" />
    <glyph glyph-name="O" unicode="O" horiz-adv-x="834" 
d="M51 354q0 -81 27 -149t75 -117.5t115.5 -77.5t148.5 -28t148.5 28t115.5 77.5t75 117.5t27 149t-27 149.5t-75 118t-115.5 77t-148.5 27.5t-148.5 -27.5t-115.5 -77t-75 -118t-27 -149.5zM117 354q0 66 21 123t60 99t94.5 66t124.5 24t124.5 -24t94.5 -66t60 -99t21 -123
t-21 -123t-60 -99t-94.5 -66t-124.5 -24t-124.5 24t-94.5 66t-60 99t-21 123z" />
    <glyph glyph-name="P" unicode="P" horiz-adv-x="574" 
d="M97 0h66v336h153q42 0 80.5 11t68 33.5t47 57.5t17.5 83q0 56 -21.5 92t-55 57t-73.5 29.5t-78 8.5h-204v-708zM163 648h146q29 0 56.5 -7t49 -22.5t35 -39.5t13.5 -58q0 -35 -13 -59t-34 -38.5t-48 -21t-55 -6.5h-150v252z" />
    <glyph glyph-name="Q" unicode="Q" horiz-adv-x="834" 
d="M813 60h-221v2q41 16 74 47.5t56 72.5t35 88t12 93q0 77 -25.5 143.5t-72 115t-113 76.5t-148.5 28t-148.5 -28t-113 -76.5t-72 -115t-25.5 -143.5q0 -82 30.5 -149t81.5 -114.5t118.5 -73.5t141.5 -26h390v60zM117 363q0 65 20 120t57.5 96t92 64t123.5 23t123.5 -23
t92 -64t57.5 -96t20 -120q0 -59 -18.5 -113.5t-54.5 -96.5t-88.5 -67.5t-120.5 -25.5q-67 0 -122.5 24t-96 65.5t-63 96.5t-22.5 117z" />
    <glyph glyph-name="R" unicode="R" horiz-adv-x="593" 
d="M163 648h140q52 0 84.5 -13t50.5 -32t24.5 -41t6.5 -40t-6.5 -40t-24.5 -41t-50.5 -32t-84.5 -13h-140v252zM97 0h66v336h123l199 -336h75l-206 340q29 4 61 14t58.5 30.5t44 53.5t17.5 84q0 47 -15 78.5t-38 52.5t-52 32t-57 16t-52 6t-38 1h-186v-708z" />
    <glyph glyph-name="S" unicode="S" horiz-adv-x="556" 
d="M53 89q42 -58 101 -82.5t129 -24.5q43 0 83 13t70.5 38.5t48.5 62.5t18 85q0 50 -15.5 83t-41.5 54.5t-58.5 34.5t-67 23.5t-67 21t-58.5 27t-41.5 42t-15.5 65.5q0 34 13 59t34.5 41.5t50.5 25t61 8.5q46 0 79.5 -17.5t58.5 -52.5l57 41q-36 48 -85.5 68.5t-107.5 20.5
q-45 0 -86 -12.5t-72.5 -37t-50 -61t-18.5 -83.5q0 -50 15.5 -84t41.5 -56.5t58.5 -36.5t67 -25t67 -22t58.5 -26.5t41.5 -39.5t15.5 -61q0 -32 -12.5 -57.5t-34 -43.5t-50.5 -28t-62 -10q-53 0 -94.5 22t-67.5 67z" />
    <glyph glyph-name="T" unicode="T" horiz-adv-x="574" 
d="M254 0h66v648h242v60h-550v-60h242v-648z" />
    <glyph glyph-name="U" unicode="U" horiz-adv-x="684" 
d="M600 708h-66v-420q0 -38 -7 -81t-27.5 -80t-58 -61t-99.5 -24t-99.5 24t-58 61t-27.5 80t-7 81v420h-66v-437q0 -57 13 -109t43.5 -92t80 -64t121.5 -24t121.5 24t80 64t43.5 92t13 109v437z" />
    <glyph glyph-name="V" unicode="V" horiz-adv-x="593" 
d="M261 0h66l269 708h-70l-230 -621l-228 621h-71z" />
    <glyph glyph-name="W" unicode="W" horiz-adv-x="944" 
d="M211 0h81l179 630h2l179 -630h81l206 708h-68l-176 -627h-2l-179 627h-84l-179 -627h-2l-176 627h-68z" />
    <glyph glyph-name="X" unicode="X" horiz-adv-x="611" 
d="M1 0h79l224 320l224 -320h82l-263 372l240 336h-79l-201 -288l-204 288h-78l242 -336z" />
    <glyph glyph-name="Y" unicode="Y" horiz-adv-x="574" 
d="M254 0h66v305l260 403h-74l-219 -336l-214 336h-79l260 -403v-305z" />
    <glyph glyph-name="Z" unicode="Z" horiz-adv-x="556" 
d="M23 0h510v60h-428l417 594v54h-493v-60h408l-414 -596v-52z" />
    <glyph glyph-name="bracketleft" unicode="[" horiz-adv-x="260" 
d="M224 732h-150v-888h150v48h-90v792h90v48z" />
    <glyph glyph-name="backslash" unicode="\" horiz-adv-x="370" 
d="M57 744l-52 -18l303 -762l53 18z" />
    <glyph glyph-name="bracketright" unicode="]" horiz-adv-x="260" 
d="M36 -156h150v888h-150v-48h90v-792h-90v-48z" />
    <glyph glyph-name="asciicircum" unicode="^" horiz-adv-x="666" 
d="M82 256h57l194 398l195 -398h56l-228 452h-46z" />
    <glyph glyph-name="underscore" unicode="_" horiz-adv-x="500" 
d="M0 -125h500v50h-500v-50z" />
    <glyph glyph-name="grave" unicode="`" horiz-adv-x="240" 
d="M74 708h-80l134 -144h50z" />
    <glyph glyph-name="a" unicode="a" horiz-adv-x="519" 
d="M439 307q0 88 -50 127.5t-134 39.5q-45 0 -94 -16.5t-82 -48.5l35 -41q61 52 141 52q56 0 93 -26t37 -86v-28h-70q-34 0 -78.5 -4.5t-84 -20t-66.5 -46.5t-27 -84q0 -37 14.5 -63t37.5 -42.5t52 -24t59 -7.5q59 0 97.5 21t64.5 66h2q0 -40 6 -75h56q-3 20 -4.5 40
t-2.5 43t-1.5 50t-0.5 61v113zM385 232v-31q0 -29 -7 -57.5t-25.5 -51t-49.5 -36.5t-79 -14q-19 0 -37.5 5.5t-33.5 16t-24.5 27t-9.5 37.5q0 30 17 50t45.5 32t64.5 17t73 5h66z" />
    <glyph glyph-name="b" unicode="b" horiz-adv-x="611" 
d="M67 0h60v81h2q14 -24 35 -41.5t45.5 -29t51.5 -17t53 -5.5q53 0 98 18t77 50.5t50 77t18 97.5t-18 97.5t-50 77t-77 50.5t-98 18q-26 0 -53 -5.5t-51.5 -17t-45.5 -29t-35 -41.5h-2v375h-60v-756zM121 231q0 39 15 73.5t41 60t61 40.5t76 15q42 0 76 -15t58 -40.5
t36.5 -60t12.5 -73.5t-12.5 -73.5t-36.5 -60t-58 -40.5t-76 -15q-41 0 -76 15t-61 40.5t-41 60t-15 73.5z" />
    <glyph glyph-name="c" unicode="c" horiz-adv-x="481" 
d="M421 106q-23 -29 -54.5 -46.5t-69.5 -17.5q-42 0 -76 15t-58 40.5t-36.5 60t-12.5 73.5t12.5 73.5t36.5 60t58 40.5t76 15q36 0 67 -16.5t57 -45.5l48 36q-34 38 -77.5 59t-94.5 21q-53 0 -97.5 -18t-77 -50.5t-50.5 -77t-18 -97.5t18 -97.5t50.5 -77t77 -50.5t97.5 -18
q50 0 93 19.5t77 60.5z" />
    <glyph glyph-name="d" unicode="d" horiz-adv-x="611" 
d="M484 0h60v756h-60v-375h-2q-14 24 -35 41.5t-45.5 29t-51.5 17t-53 5.5q-53 0 -97.5 -18t-77 -50.5t-50.5 -77t-18 -97.5t18 -97.5t50.5 -77t77 -50.5t97.5 -18q26 0 53 5.5t51.5 17t45.5 29t35 41.5h2v-81zM490 231q0 -39 -15 -73.5t-41 -60t-61 -40.5t-76 -15
q-42 0 -76 15t-58 40.5t-36.5 60t-12.5 73.5t12.5 73.5t36.5 60t58 40.5t76 15q41 0 76 -15t61 -40.5t41 -60t15 -73.5z" />
    <glyph glyph-name="e" unicode="e" horiz-adv-x="556" 
d="M444 124q-23 -38 -66 -60t-89 -22q-52 0 -86 20t-54 48t-27.5 57.5t-7.5 48.5h388v42q0 40 -14 79t-41.5 69.5t-68 49t-93.5 18.5q-51 0 -93 -18.5t-73 -51t-48 -76.5t-17 -96q0 -54 16.5 -98.5t47.5 -77t74 -50.5t96 -18q62 0 113.5 23t86.5 76zM114 270q0 9 8 33.5
t27 50.5t51.5 46t81.5 20q33 0 62.5 -12t51 -32.5t34 -47.5t12.5 -58h-328z" />
    <glyph glyph-name="f" unicode="f" horiz-adv-x="296" 
d="M114 0h60v408h108v54h-108v129q0 123 81 123q34 0 54 -10l12 52q-27 12 -69 12q-22 0 -46.5 -7.5t-44.5 -25.5t-33.5 -47.5t-13.5 -74.5v-151h-96v-54h96v-408z" />
    <glyph glyph-name="g" unicode="g" horiz-adv-x="611" 
d="M544 462h-60v-78h-2q-26 42 -70.5 66t-104.5 24q-51 0 -96 -18.5t-78.5 -51t-53 -75.5t-19.5 -92t19.5 -92t53 -75t78.5 -51t96 -19q60 0 104.5 24t70.5 66h2v-64q0 -13 -1 -34t-6.5 -44.5t-17 -47t-32 -43t-52 -31.5t-77.5 -12q-54 0 -102 21t-80 66l-47 -44
q18 -23 42.5 -41t54.5 -30.5t63.5 -19t68.5 -6.5t78 10t80.5 39t62.5 82t25 139v432zM486 237q0 -38 -14.5 -71.5t-39 -58t-58 -39t-71.5 -14.5t-71.5 14.5t-58 39t-39 58t-14.5 71.5t14.5 71.5t39 58t58 39t71.5 14.5t71.5 -14.5t58 -39t39 -58t14.5 -71.5z" />
    <glyph glyph-name="h" unicode="h" horiz-adv-x="556" 
d="M80 0h60v231q0 48 12.5 83.5t34 59t51 35t62.5 11.5q36 0 58.5 -12.5t35 -33.5t17.5 -47.5t5 -54.5v-272h60v275q0 38 -7 74t-26.5 63.5t-54 44.5t-88.5 17q-56 0 -98 -27.5t-60 -65.5h-2v375h-60v-756z" />
    <glyph glyph-name="i" unicode="i" horiz-adv-x="240" 
d="M90 0h60v462h-60v-462zM75 645q0 -19 13 -32t32 -13t32 13t13 32t-13 32t-32 13t-32 -13t-13 -32z" />
    <glyph glyph-name="j" unicode="j" horiz-adv-x="240" 
d="M150 462h-60v-548q0 -20 -2.5 -38t-10 -31.5t-22 -22t-38.5 -8.5q-17 0 -38 8l-9 -53q24 -9 48 -9q40 0 65.5 11.5t40.5 32.5t20.5 50t5.5 65v543zM75 645q0 -19 13 -32t32 -13t32 13t13 32t-13 32t-32 13t-32 -13t-13 -32z" />
    <glyph glyph-name="k" unicode="k" horiz-adv-x="481" 
d="M80 0h60v244l253 -244h91l-266 250l238 211h-88l-228 -209v504h-60v-756z" />
    <glyph glyph-name="l" unicode="l" horiz-adv-x="240" 
d="M90 0h60v756h-60v-756z" />
    <glyph glyph-name="m" unicode="m" horiz-adv-x="852" 
d="M80 0h60v231q0 48 12.5 83.5t34 59t51 35t62.5 11.5q49 0 72.5 -39t23.5 -103v-278h60v260q0 25 6.5 53t22 52t42.5 39.5t69 15.5q36 0 58.5 -12.5t35 -33.5t17.5 -47.5t5 -54.5v-272h60v275q0 38 -7 74t-26.5 63.5t-54 44.5t-88.5 17q-48 0 -91.5 -24t-65.5 -76
q-17 53 -55 76.5t-84 23.5q-56 0 -98 -27.5t-60 -65.5h-3q-2 7 -2.5 31t-1.5 50h-60q0 -9 1 -25.5t1.5 -35.5t1.5 -37.5t1 -31.5v-332z" />
    <glyph glyph-name="n" unicode="n" horiz-adv-x="556" 
d="M80 0h60v231q0 48 12.5 83.5t34 59t51 35t62.5 11.5q36 0 58.5 -12.5t35 -33.5t17.5 -47.5t5 -54.5v-272h60v275q0 38 -7 74t-26.5 63.5t-54 44.5t-88.5 17q-56 0 -98 -27.5t-60 -65.5h-3q-2 7 -2.5 31t-1.5 50h-60q0 -9 1 -25.5t1.5 -35.5t1.5 -37.5t1 -31.5v-332z" />
    <glyph glyph-name="o" unicode="o" horiz-adv-x="594" 
d="M54 231q0 -53 18 -97.5t50.5 -77t77 -50.5t97.5 -18t98 18t77 50.5t50 77t18 97.5t-18 97.5t-50 77t-77 50.5t-98 18t-97.5 -18t-77 -50.5t-50.5 -77t-18 -97.5zM114 231q0 39 12.5 73.5t36.5 60t58 40.5t76 15t76 -15t58 -40.5t36.5 -60t12.5 -73.5t-12.5 -73.5
t-36.5 -60t-58 -40.5t-76 -15t-76 15t-58 40.5t-36.5 60t-12.5 73.5z" />
    <glyph glyph-name="p" unicode="p" horiz-adv-x="611" 
d="M67 -228h60v309h2q14 -24 35 -41.5t45.5 -29t51.5 -17t53 -5.5q53 0 98 18t77 50.5t50 77t18 97.5t-18 97.5t-50 77t-77 50.5t-98 18q-26 0 -53 -5.5t-51.5 -17t-45.5 -29t-35 -41.5h-2v81h-60v-690zM121 231q0 39 15 73.5t41 60t61 40.5t76 15q42 0 76 -15t58 -40.5
t36.5 -60t12.5 -73.5t-12.5 -73.5t-36.5 -60t-58 -40.5t-76 -15q-41 0 -76 15t-61 40.5t-41 60t-15 73.5z" />
    <glyph glyph-name="q" unicode="q" horiz-adv-x="611" 
d="M484 -228h60v690h-60v-81h-2q-14 24 -35 41.5t-45.5 29t-51.5 17t-53 5.5q-53 0 -97.5 -18t-77 -50.5t-50.5 -77t-18 -97.5t18 -97.5t50.5 -77t77 -50.5t97.5 -18q26 0 53 5.5t51.5 17t45.5 29t35 41.5h2v-309zM490 231q0 -39 -15 -73.5t-41 -60t-61 -40.5t-76 -15
q-42 0 -76 15t-58 40.5t-36.5 60t-12.5 73.5t12.5 73.5t36.5 60t58 40.5t76 15q41 0 76 -15t61 -40.5t41 -60t15 -73.5z" />
    <glyph glyph-name="r" unicode="r" horiz-adv-x="333" 
d="M80 0h60v252q0 34 9 63.5t27.5 51.5t47 34.5t67.5 12.5q11 0 23 -4l7 59q-9 2 -17.5 3.5t-17.5 1.5q-52 0 -88 -26t-59 -67q-2 7 -2.5 31t-1.5 50h-60q0 -9 1 -25.5t1.5 -35.5t1.5 -37.5t1 -31.5v-332z" />
    <glyph glyph-name="s" unicode="s" horiz-adv-x="426" 
d="M28 82q27 -48 76.5 -71t109.5 -23q33 0 63 9t53.5 27t37 44.5t13.5 62.5q0 47 -20.5 72.5t-50.5 39t-66 19.5t-66 14.5t-50.5 23.5t-20.5 46q0 18 9.5 32t23.5 23t31.5 14t33.5 5q41 0 66.5 -16.5t42.5 -48.5l54 32q-23 45 -64.5 66t-98.5 21q-28 0 -56.5 -8t-51 -24.5
t-36.5 -41.5t-14 -59q0 -44 20.5 -68t50.5 -37.5t66 -20t66 -15.5t50.5 -25t20.5 -48q0 -20 -9 -35.5t-24 -26.5t-34 -17t-39 -6q-41 0 -78 19.5t-56 56.5z" />
    <glyph glyph-name="t" unicode="t" horiz-adv-x="333" 
d="M306 462h-132v133h-60v-133h-100v-54h100v-301q0 -25 6.5 -46.5t21 -37.5t37 -25.5t54.5 -9.5q17 0 39 5t39 11l-5 54q-16 -7 -33.5 -11.5t-34.5 -4.5q-30 0 -47 17t-17 48v301h132v54z" />
    <glyph glyph-name="u" unicode="u" horiz-adv-x="556" 
d="M471 462h-60v-231q0 -48 -12.5 -83.5t-34 -59t-51 -35t-62.5 -11.5q-36 0 -58.5 12.5t-35 33.5t-17.5 47.5t-5 54.5v272h-60v-275q0 -38 7.5 -74t27 -63.5t53.5 -44.5t88 -17q56 0 98 27.5t60 65.5h3q2 -7 2.5 -31t1.5 -50h60q0 9 -1 25.5t-1.5 35.5t-1.5 37.5t-1 31.5
v332z" />
    <glyph glyph-name="v" unicode="v" horiz-adv-x="463" 
d="M204 0h62l182 462h-61l-150 -397l-154 397h-68z" />
    <glyph glyph-name="w" unicode="w" horiz-adv-x="704" 
d="M160 0h62l129 378h2l138 -378h62l136 462h-60l-109 -387h-2l-137 387h-57l-129 -387h-2l-112 387h-66z" />
    <glyph glyph-name="x" unicode="x" horiz-adv-x="481" 
d="M6 0h72l158 209l161 -209h78l-198 250l163 212h-75l-127 -175l-128 175h-77l165 -212z" />
    <glyph glyph-name="y" unicode="y" horiz-adv-x="463" 
d="M448 462h-64l-149 -389l-153 389h-67l188 -464l-42 -107q-5 -14 -11.5 -27.5t-15.5 -24.5t-21 -18t-29 -7q-14 0 -27.5 3.5t-26.5 7.5l-6 -56q14 -4 29 -6.5t30 -2.5q50 0 80 26t47 71z" />
    <glyph glyph-name="z" unicode="z" horiz-adv-x="426" 
d="M27 0h372v54h-288l276 372v36h-346v-54h263l-277 -372v-36z" />
    <glyph glyph-name="braceleft" unicode="{" horiz-adv-x="333" 
d="M274 732h-50q-42 0 -65 -32t-23 -89v-145q0 -29 -3 -57t-11 -49.5t-21.5 -34.5t-34.5 -13v-48q21 0 34.5 -13t21.5 -34.5t11 -49t3 -56.5v-146q0 -56 23 -88.5t65 -32.5h50v48h-23q-15 0 -25.5 8.5t-17 22t-9.5 31t-3 35.5v142q0 39 -9 67.5t-21 47t-23.5 28.5t-16.5 13
v2q5 2 16.5 12t23.5 29t21 47.5t9 67.5v141q0 19 3 36.5t9.5 31t17 22t25.5 8.5h23v48z" />
    <glyph glyph-name="bar" unicode="|" horiz-adv-x="222" 
d="M87 750v-1000h48v1000h-48z" />
    <glyph glyph-name="braceright" unicode="}" horiz-adv-x="333" 
d="M59 -156h50q42 0 65 32t23 89v145q0 29 3 57t11 49.5t21.5 34.5t34.5 13v48q-21 0 -34.5 13t-21.5 34.5t-11 49t-3 56.5v146q0 56 -23 88.5t-65 32.5h-50v-48h23q15 0 25.5 -8.5t17 -22t9.5 -31t3 -35.5v-142q0 -39 9 -67.5t21 -47t23.5 -28.5t16.5 -13v-2
q-5 -2 -16.5 -12t-23.5 -29t-21 -47.5t-9 -67.5v-141q0 -19 -3 -36.5t-9.5 -31t-17 -22t-25.5 -8.5h-23v-48z" />
    <glyph glyph-name="asciitilde" unicode="~" horiz-adv-x="666" 
d="M529 364q-17 -26 -37.5 -47t-50.5 -21q-19 0 -44 9.5t-54 22.5q-28 12 -57.5 24t-57.5 12q-25 0 -44.5 -8t-34.5 -21t-26.5 -29t-19.5 -32l34 -32q17 26 37.5 47t50.5 21q19 0 44 -9.5t54 -22.5q28 -12 57.5 -24t57.5 -12q25 0 44.5 7.5t34.5 20t26.5 29t19.5 33.5z" />
    <glyph glyph-name="Adieresis" horiz-adv-x="685" 
d="M5 0h69l80 188h375l77 -188h74l-298 708h-68zM505 248h-325l165 388zM200 840q0 -20 14 -34t34 -14t34 14t14 34t-14 34t-34 14t-34 -14t-14 -34zM390 840q0 -20 14 -34t34 -14t34 14t14 34t-14 34t-34 14t-34 -14t-14 -34z" />
    <glyph glyph-name="Aring" horiz-adv-x="685" 
d="M5 0h69l80 188h375l77 -188h74l-298 708h-68zM505 248h-325l165 388zM250 837q0 -19 7.5 -36.5t20 -30.5t30 -20.5t36.5 -7.5t36 8t29.5 21t19.5 30t7 35q0 19 -7 36t-19.5 30.5t-29 21.5t-36.5 8q-19 0 -36.5 -7.5t-30 -20.5t-20 -30.5t-7.5 -36.5zM400 837
q0 -25 -16 -42t-41 -17q-24 0 -40.5 16.5t-16.5 41.5t16 42.5t41 17.5t41 -17t16 -42z" />
    <glyph glyph-name="ccedilla" horiz-adv-x="481" 
d="M421 106q-23 -29 -54.5 -46.5t-69.5 -17.5q-42 0 -76 15t-58 40.5t-36.5 60t-12.5 73.5t12.5 73.5t36.5 60t58 40.5t76 15q36 0 67 -16.5t57 -45.5l48 36q-34 38 -77.5 59t-94.5 21q-53 0 -97.5 -18t-77 -50.5t-50.5 -77t-18 -97.5q0 -47 14 -87.5t39.5 -71.5t61.5 -51.5
t79 -27.5l-57 -81l16 -15q21 8 44 8q20 0 38 -9.5t18 -32.5q0 -12 -6 -20t-15.5 -13t-20.5 -7.5t-21 -2.5q-43 0 -76 17l-14 -32q45 -21 95 -21q20 0 39.5 5t36 15t26.5 26t10 39q0 36 -25.5 54t-57.5 18q-18 0 -31 -7l-2 2l38 53q5 -1 14 -1q50 0 93 19.5t77 60.5z" />
    <glyph glyph-name="eacute" horiz-adv-x="556" 
d="M444 124q-23 -38 -66 -60t-89 -22q-52 0 -86 20t-54 48t-27.5 57.5t-7.5 48.5h388v42q0 40 -14 79t-41.5 69.5t-68 49t-93.5 18.5q-51 0 -93 -18.5t-73 -51t-48 -76.5t-17 -96q0 -54 16.5 -98.5t47.5 -77t74 -50.5t96 -18q62 0 113.5 23t86.5 76zM114 270q0 9 8 33.5
t27 50.5t51.5 46t81.5 20q33 0 62.5 -12t51 -32.5t34 -47.5t12.5 -58h-328zM220 564h50l134 144h-80z" />
    <glyph glyph-name="egrave" horiz-adv-x="556" 
d="M444 124q-23 -38 -66 -60t-89 -22q-52 0 -86 20t-54 48t-27.5 57.5t-7.5 48.5h388v42q0 40 -14 79t-41.5 69.5t-68 49t-93.5 18.5q-51 0 -93 -18.5t-73 -51t-48 -76.5t-17 -96q0 -54 16.5 -98.5t47.5 -77t74 -50.5t96 -18q62 0 113.5 23t86.5 76zM114 270q0 9 8 33.5
t27 50.5t51.5 46t81.5 20q33 0 62.5 -12t51 -32.5t34 -47.5t12.5 -58h-328zM232 708h-80l134 -144h50z" />
    <glyph glyph-name="ecircumflex" horiz-adv-x="556" 
d="M444 124q-23 -38 -66 -60t-89 -22q-52 0 -86 20t-54 48t-27.5 57.5t-7.5 48.5h388v42q0 40 -14 79t-41.5 69.5t-68 49t-93.5 18.5q-51 0 -93 -18.5t-73 -51t-48 -76.5t-17 -96q0 -54 16.5 -98.5t47.5 -77t74 -50.5t96 -18q62 0 113.5 23t86.5 76zM114 270q0 9 8 33.5
t27 50.5t51.5 46t81.5 20q33 0 62.5 -12t51 -32.5t34 -47.5t12.5 -58h-328zM135 564h59l81 108l81 -108h65l-108 144h-70z" />
    <glyph glyph-name="ugrave" horiz-adv-x="556" 
d="M471 462h-60v-231q0 -48 -12.5 -83.5t-34 -59t-51 -35t-62.5 -11.5q-36 0 -58.5 12.5t-35 33.5t-17.5 47.5t-5 54.5v272h-60v-275q0 -38 7.5 -74t27 -63.5t53.5 -44.5t88 -17q56 0 98 27.5t60 65.5h3q2 -7 2.5 -31t1.5 -50h60q0 9 -1 25.5t-1.5 35.5t-1.5 37.5t-1 31.5
v332zM232 708h-80l134 -144h50z" />
    <glyph glyph-name="ucircumflex" horiz-adv-x="556" 
d="M471 462h-60v-231q0 -48 -12.5 -83.5t-34 -59t-51 -35t-62.5 -11.5q-36 0 -58.5 12.5t-35 33.5t-17.5 47.5t-5 54.5v272h-60v-275q0 -38 7.5 -74t27 -63.5t53.5 -44.5t88 -17q56 0 98 27.5t60 65.5h3q2 -7 2.5 -31t1.5 -50h60q0 9 -1 25.5t-1.5 35.5t-1.5 37.5t-1 31.5
v332zM135 564h59l81 108l81 -108h65l-108 144h-70z" />
    <glyph glyph-name="dagger" unicode="&#xa0;" 
d="M230 -126h60v587h192v48h-192v199h-60v-199h-192v-48h192v-587z" />
    <glyph glyph-name="degree" unicode="&#xa1;" horiz-adv-x="400" 
d="M200 432q30 0 56.5 11.5t46 31t30.5 46t11 56.5t-11 56t-30.5 45.5t-46 30.5t-56.5 11t-56 -11t-45.5 -30.5t-31 -45.5t-11.5 -56t11.5 -56.5t31 -46t45.5 -31t56 -11.5zM200 480q-40 0 -68 28t-28 68t28 68t68 28t68 -28t28 -68t-28 -68t-68 -28z" />
    <glyph glyph-name="cent" unicode="&#xa2;" 
d="M256 47q-33 7 -59.5 24.5t-45.5 42.5t-29 55.5t-10 63.5t9.5 64t28 56t45.5 42t61 22v-370zM304 418q37 -3 65 -18.5t51 -41.5l48 36q-32 36 -73.5 56.5t-90.5 21.5v71h-48v-72q-45 -6 -82.5 -26.5t-64.5 -52t-42 -72t-15 -87.5t14.5 -88t41.5 -73.5t64.5 -53.5t83.5 -27
v-72h48v69q99 3 162 80l-46 38q-22 -27 -51.5 -44.5t-64.5 -19.5v376z" />
    <glyph glyph-name="sterling" unicode="&#xa3;" 
d="M58 0h416v54h-245v288h165v54h-165v124q0 23 8 48.5t25 47t43.5 36t64.5 14.5q32 0 58.5 -14.5t47.5 -35.5l40 48q-64 56 -143 56q-58 0 -98 -19.5t-65 -50t-36 -67t-11 -70.5v-117h-95v-54h95v-288h-105v-54z" />
    <glyph glyph-name="section" unicode="&#xa4;" 
d="M212 227q-28 14 -48 32t-20 56q0 20 9 35.5t23.5 27t31.5 19.5t33 13l75 -41q12 -6 25 -15.5t24 -22t18 -27.5t7 -33q0 -16 -7 -30.5t-18 -26.5t-24.5 -22t-26.5 -17zM64 -24q12 -31 32 -53.5t45 -37.5t54.5 -22t60.5 -7q36 0 69.5 11t59.5 32.5t41.5 52.5t15.5 71
t-21 71.5t-54 51.5q38 21 63.5 53.5t25.5 78.5q0 45 -21.5 74.5t-53.5 51.5t-69 38.5t-69 34t-53.5 39t-21.5 53.5q0 24 10 42.5t26 30.5t37.5 18t43.5 6q36 0 63.5 -17t41.5 -51l58 34q-10 25 -26.5 43t-38 29t-46 16.5t-49.5 5.5q-34 0 -67.5 -10t-60 -30t-42.5 -49
t-16 -68q0 -45 23 -75t59 -52q-21 -9 -40 -20.5t-34 -27.5t-23.5 -35.5t-8.5 -45.5q0 -46 22 -77t55 -53.5t72 -39t72 -34t55 -40t22 -56.5q0 -24 -10.5 -42t-27.5 -30.5t-38.5 -18.5t-44.5 -6q-47 0 -80 22.5t-50 67.5z" />
    <glyph glyph-name="bullet" unicode="&#xa5;" horiz-adv-x="500" 
d="M73 354q0 -37 14 -69t38 -56t56 -38t69 -14t69 14t56 38t38 56t14 69t-14 69t-38 56t-56 38t-69 14t-69 -14t-56 -38t-38 -56t-14 -69z" />
    <glyph glyph-name="paragraph" unicode="&#xa6;" horiz-adv-x="600" 
d="M267 -126h60v786h123v-786h60v834h-227q-106 0 -164.5 -50.5t-58.5 -145.5q0 -39 16 -73t43.5 -60t65.5 -41t82 -15v-449z" />
    <glyph glyph-name="germandbls" unicode="&#xa7;" horiz-adv-x="593" 
d="M266 404h21q37 0 71 -11t60.5 -33.5t42 -57.5t15.5 -82q0 -39 -13 -71t-37 -54.5t-57.5 -34.5t-73.5 -12q-14 0 -27 2t-26 7v-58q12 -3 23.5 -4t23.5 -1q54 0 99 15t78 44t51.5 71.5t18.5 96.5q0 58 -14.5 96.5t-37.5 62.5t-51 36t-56 17v2q45 14 72 54.5t27 99.5
q0 43 -14.5 76.5t-39 56t-58.5 34.5t-73 12q-51 0 -90.5 -17.5t-66.5 -48.5t-40.5 -74t-13.5 -94v-534h60v525q0 38 7.5 72.5t24.5 60.5t45 41t69 15q57 0 93.5 -32t36.5 -95q0 -60 -37.5 -94.5t-97.5 -34.5h-15v-54z" />
    <glyph glyph-name="registered" unicode="&#xa8;" horiz-adv-x="800" 
d="M319 329h77l128 -188h61l-128 188q22 4 41.5 12.5t34.5 23t23.5 35.5t8.5 51q0 58 -31 88.5t-104 30.5h-165v-429h54v188zM319 522h96q17 0 34.5 -3.5t31 -11.5t22 -21.5t8.5 -34.5q0 -27 -11 -41.5t-28.5 -22t-39.5 -9t-44 -1.5h-69v145zM28 354q0 -77 29.5 -144.5
t80 -118t118 -80t144.5 -29.5t144.5 29.5t118 80t80 118t29.5 144.5t-29.5 144.5t-80 118t-118 80t-144.5 29.5t-144.5 -29.5t-118 -80t-80 -118t-29.5 -144.5zM82 354q0 66 25 124t68 101t101 68t124 25t124 -25t101 -68t68 -101t25 -124t-25 -124t-68 -101t-101 -68
t-124 -25t-124 25t-101 68t-68 101t-25 124z" />
    <glyph glyph-name="copyright" unicode="&#xa9;" horiz-adv-x="800" 
d="M594 431q-5 37 -21 65t-41 47.5t-56.5 29.5t-66.5 10q-51 0 -91 -17t-67 -48t-41.5 -72.5t-14.5 -91.5q0 -49 14.5 -91t41.5 -73t67 -48t91 -17q35 0 66.5 10t56.5 29.5t41 47.5t21 65h-54q-4 -21 -14.5 -39.5t-27 -33t-39 -23t-49.5 -8.5q-38 0 -68 14.5t-50.5 39.5
t-31.5 57.5t-11 69.5t11 70t31.5 57.5t50.5 39t68 14.5q55 -1 88 -32t42 -72h54zM28 354q0 -77 29.5 -144.5t80 -118t118 -80t144.5 -29.5t144.5 29.5t118 80t80 118t29.5 144.5t-29.5 144.5t-80 118t-118 80t-144.5 29.5t-144.5 -29.5t-118 -80t-80 -118t-29.5 -144.5z
M82 354q0 66 25 124t68 101t101 68t124 25t124 -25t101 -68t68 -101t25 -124t-25 -124t-68 -101t-101 -68t-124 -25t-124 25t-101 68t-68 101t-25 124z" />
    <glyph glyph-name="trademark" unicode="&#xaa;" horiz-adv-x="990" 
d="M217 296h54v364h133v48h-320v-48h133v-364zM478 296h54v361h2l142 -361h32l142 361h2v-361h54v412h-83l-129 -328l-130 328h-86v-412z" />
    <glyph glyph-name="acute" unicode="&#xab;" horiz-adv-x="240" 
d="M62 564h50l134 144h-80z" />
    <glyph glyph-name="dieresis" unicode="&#xac;" horiz-adv-x="240" 
d="M-23 652q0 -20 14 -34t34 -14t34 14t14 34t-14 34t-34 14t-34 -14t-14 -34zM167 652q0 -20 14 -34t34 -14t34 14t14 34t-14 34t-34 14t-34 -14t-14 -34z" />
    <glyph glyph-name="AE" unicode="&#xae;" horiz-adv-x="926" 
d="M-5 0h70l123 188h312v-188h367v60h-301v276h276v60h-276v252h293v60h-403zM500 248h-273l261 400h12v-400z" />
    <glyph glyph-name="Oslash" unicode="&#xaf;" horiz-adv-x="834" 
d="M68 15l35 -31l75 81q47 -40 107 -61.5t132 -21.5q81 0 148.5 28t115.5 77.5t75 117.5t27 149q0 80 -25.5 146.5t-72.5 115.5l75 81l-34 31l-74 -81q-47 38 -106 58.5t-129 20.5q-81 0 -148.5 -27.5t-115.5 -77t-75 -118t-27 -149.5q0 -78 24 -143t69 -114zM188 144
q-71 83 -71 210q0 66 21 123t60 99t94.5 66t124.5 24q58 0 106 -17t86 -48zM642 569q36 -41 55.5 -96t19.5 -119q0 -66 -21 -123t-60 -99t-94.5 -66t-124.5 -24q-60 0 -109.5 18t-87.5 51z" />
    <glyph glyph-name="plusminus" unicode="&#xb1;" horiz-adv-x="666" 
d="M78 327h228v-183h48v183h234v48h-234v183h-48v-183h-228v-48zM82 48h502v48h-502v-48z" />
    <glyph glyph-name="yen" unicode="&#xb4;" 
d="M227 0h66v180h170v48h-170v77l9 16h161v48h-134l191 339h-65l-195 -344l-192 344h-68l191 -339h-134v-48h161l9 -16v-77h-170v-48h170v-180z" />
    <glyph glyph-name="mu" unicode="&#xb5;" horiz-adv-x="556" 
d="M471 462h-60v-231q0 -48 -12.5 -83.5t-34 -59t-51 -35t-62.5 -11.5q-36 0 -58.5 12.5t-35 33.5t-17.5 47.5t-5 54.5v272h-60v-690h59v254q20 -18 48 -28t69 -10q56 0 98 27.5t60 65.5h3q2 -7 2.5 -31t1.5 -50h60q0 9 -1 25.5t-1.5 35.5t-1.5 37.5t-1 31.5v332z" />
    <glyph glyph-name="ordfeminine" unicode="&#xbb;" horiz-adv-x="337" 
d="M186 602q-27 0 -54 -4t-49 -15t-35.5 -30t-13.5 -48q0 -22 9 -37t24.5 -25t35.5 -14.5t41 -4.5q35 0 61 12t43 40h2q1 -13 1 -24t3 -22h49q-4 24 -4.5 49.5t-0.5 51.5v80q0 61 -30 85t-90 24q-83 0 -131 -39l26 -38q21 17 42.5 26t51.5 9q48 0 65 -17.5t18 -49.5v-9h-64z
M250 560v-7q0 -13 -5 -28.5t-16.5 -28.5t-30 -21.5t-44.5 -8.5q-27 0 -49.5 11.5t-22.5 29.5q0 17 12.5 27t31.5 16t42 8t44 2h38z" />
    <glyph glyph-name="ordmasculine" unicode="&#xbc;" horiz-adv-x="386" 
d="M34 572q0 -33 11 -60t32 -46.5t50 -30.5t65 -11q35 0 64 11t50.5 30.5t33.5 46.5t12 60q0 34 -12 61t-33.5 46.5t-50.5 30t-64 10.5q-36 0 -65 -11t-50 -30.5t-32 -46.5t-11 -60zM82 572q0 21 8 40t23 34t35 23.5t44 8.5q51 0 81.5 -30.5t30.5 -75.5q0 -22 -8.5 -41
t-23.5 -33.5t-35.5 -23t-44.5 -8.5t-44.5 8.5t-35 23.5t-22.5 34t-8 40z" />
    <glyph glyph-name="ae" unicode="&#xbe;" horiz-adv-x="852" 
d="M392 270h-115q-71 0 -114.5 -14.5t-67.5 -36t-32.5 -47t-8.5 -47.5q0 -37 14.5 -63t37.5 -42.5t52 -24t59 -7.5q66 0 120 26t83 88q25 -60 73 -87t109 -27q64 0 107.5 21.5t82.5 72.5l-47 34q-22 -35 -56 -54.5t-77 -19.5q-40 0 -71 14t-51 37.5t-29.5 55t-8.5 67.5h356
v35q0 59 -17 101.5t-45.5 69.5t-66.5 39.5t-80 12.5q-24 0 -48.5 -6t-47 -18t-41.5 -30t-32 -42q-26 55 -71.5 75.5t-108.5 20.5q-45 0 -94 -16.5t-82 -48.5l35 -41q61 52 141 52q75 0 108.5 -36.5t33.5 -104.5v-9zM392 216q0 -36 -9.5 -67.5t-30.5 -55t-53.5 -37.5
t-79.5 -14q-19 0 -37.5 5.5t-33.5 16t-24.5 27t-9.5 37.5q0 11 5.5 26t22.5 28.5t48.5 23.5t84.5 10h117zM452 270q0 31 10.5 58t29.5 47.5t47 32.5t62 12q38 0 65.5 -12t45.5 -32t27 -47.5t9 -58.5h-296z" />
    <glyph glyph-name="oslash" unicode="&#xbf;" horiz-adv-x="594" 
d="M39 2l32 -29l68 69q30 -26 70 -40t88 -14q53 0 98 18t77 50.5t50 77t18 97.5q0 48 -14.5 88.5t-41.5 71.5l71 71l-32 29l-69 -70q-31 25 -70.5 39t-86.5 14q-53 0 -97.5 -18t-77 -50.5t-50.5 -77t-18 -97.5q0 -94 55 -158zM150 115q-18 23 -27 53t-9 63q0 39 12.5 73.5
t36.5 60t58 40.5t76 15q35 0 64 -10.5t52 -29.5zM443 349q18 -23 27.5 -53t9.5 -65q0 -39 -12.5 -73.5t-36.5 -60t-58 -40.5t-76 -15q-36 0 -65.5 10.5t-51.5 30.5z" />
    <glyph glyph-name="questiondown" unicode="&#xc0;" horiz-adv-x="463" 
d="M259 300h-60v-64q0 -35 -12 -59.5t-30 -44t-39 -38t-39 -40.5t-30 -51t-12 -71q0 -41 14 -73t38.5 -54t58.5 -33.5t73 -11.5q75 0 128 42.5t67 119.5l-65 8q-11 -52 -44.5 -84t-86.5 -32q-55 0 -86 33.5t-31 87.5q0 33 11.5 57t29 44.5t37.5 38.5t37.5 38t29 45t11.5 58
v84zM276 444q0 20 -14 34t-34 14t-34 -14t-14 -34t14 -34t34 -14t34 14t14 34z" />
    <glyph glyph-name="exclamdown" unicode="&#xc1;" horiz-adv-x="370" 
d="M155 -222h60v522h-60v-522zM233 444q0 20 -14 34t-34 14t-34 -14t-14 -34t14 -34t34 -14t34 14t14 34z" />
    <glyph glyph-name="logicalnot" unicode="&#xc2;" horiz-adv-x="666" 
d="M540 134h48v265h-510v-48h462v-217z" />
    <glyph glyph-name="florin" unicode="&#xc4;" 
d="M395 419h-108l29 157q7 37 26 63.5t57 26.5q16 0 30.5 -6t27.5 -15l32 45q-41 30 -90 30q-35 0 -60 -13t-42 -34t-26.5 -47.5t-14.5 -52.5l-29 -154h-117v-48h108l-64 -350q-10 -54 -28.5 -82.5t-58.5 -28.5q-14 0 -28 4t-25 13l-30 -47q17 -14 37.5 -19t41.5 -5
q65 0 98.5 33t44.5 91l72 391h117v48z" />
    <glyph glyph-name="guillemotleft" unicode="&#xc7;" horiz-adv-x="481" 
d="M200 34l44 27l-118 176l116 174l-42 29l-137 -203zM366 34l44 27l-118 176l116 174l-42 29l-137 -203z" />
    <glyph glyph-name="guillemotright" unicode="&#xc8;" horiz-adv-x="481" 
d="M115 440l-44 -27l118 -176l-116 -174l42 -29l137 203zM281 440l-44 -27l118 -176l-116 -174l42 -29l137 203z" />
    <glyph glyph-name="ellipsis" unicode="&#xc9;" horiz-adv-x="1000" 
d="M119 42q0 -20 14 -34t34 -14t34 14t14 34t-14 34t-34 14t-34 -14t-14 -34zM452 42q0 -20 14 -34t34 -14t34 14t14 34t-14 34t-34 14t-34 -14t-14 -34zM785 42q0 -20 14 -34t34 -14t34 14t14 34t-14 34t-34 14t-34 -14t-14 -34z" />
    <glyph glyph-name="Agrave" unicode="&#xcb;" horiz-adv-x="685" 
d="M5 0h69l80 188h375l77 -188h74l-298 708h-68zM505 248h-325l165 388zM297 896h-80l134 -144h50z" />
    <glyph glyph-name="Atilde" unicode="&#xcc;" horiz-adv-x="685" 
d="M5 0h69l80 188h375l77 -188h74l-298 708h-68zM505 248h-325l165 388zM223 769q5 18 16.5 33t34.5 15q15 0 31.5 -8t34.5 -16t36.5 -16t38.5 -8t34.5 9t25 23.5t16.5 33t8 36.5h-36q-4 -18 -15 -33t-33 -15q-14 0 -30 7.5t-33 15.5q-17 9 -36 17t-39 8t-36 -9.5t-27 -24.5
q-11 -14 -18 -32.5t-9 -35.5h36z" />
    <glyph glyph-name="Otilde" unicode="&#xcd;" horiz-adv-x="834" 
d="M51 354q0 -81 27 -149t75 -117.5t115.5 -77.5t148.5 -28t148.5 28t115.5 77.5t75 117.5t27 149t-27 149.5t-75 118t-115.5 77t-148.5 27.5t-148.5 -27.5t-115.5 -77t-75 -118t-27 -149.5zM117 354q0 66 21 123t60 99t94.5 66t124.5 24t124.5 -24t94.5 -66t60 -99t21 -123
t-21 -123t-60 -99t-94.5 -66t-124.5 -24t-124.5 24t-94.5 66t-60 99t-21 123zM297 769q5 18 16.5 33t34.5 15q15 0 31.5 -8t34.5 -16t36.5 -16t38.5 -8t34.5 9t25 23.5t16.5 33t8 36.5h-36q-4 -18 -15 -33t-33 -15q-14 0 -30 7.5t-33 15.5q-17 9 -36 17t-39 8t-36 -9.5
t-27 -24.5q-11 -14 -18 -32.5t-9 -35.5h36z" />
    <glyph glyph-name="OE" unicode="&#xce;" horiz-adv-x="944" 
d="M581 336h279v60h-279v252h296v60h-432q-74 0 -143.5 -22.5t-123.5 -67t-86.5 -110.5t-32.5 -154q0 -80 28.5 -145.5t77 -112t113 -71.5t135.5 -25h472v60h-304v276zM515 60h-84q-29 0 -63 6.5t-68 21t-65.5 37t-56 55.5t-39 76t-14.5 98q0 77 29 132.5t74.5 91.5t101 53
t107.5 17h78v-588z" />
    <glyph glyph-name="oe" unicode="&#xcf;" horiz-adv-x="907" 
d="M507 270q0 31 10.5 58t29.5 47.5t47 32.5t62 12q38 0 65.5 -12t45.5 -32t27 -47.5t9 -58.5h-296zM863 216v35q0 59 -17 101.5t-45.5 69.5t-66.5 39.5t-80 12.5q-38 0 -68 -10.5t-52 -27t-37 -37t-24 -40.5q-6 12 -19.5 31.5t-36.5 38t-58 32t-85 13.5q-49 0 -91.5 -18
t-73 -50.5t-48 -77t-17.5 -97.5t17.5 -97.5t48 -77t73 -50.5t91.5 -18q66 0 118 29t81 85h2q25 -60 73 -87t109 -27q64 0 107.5 21.5t82.5 72.5l-47 34q-22 -35 -56 -54.5t-77 -19.5q-40 0 -71 14t-51 37.5t-29.5 55t-8.5 67.5h356zM104 231q0 37 12 71t34.5 60.5t54 42
t71.5 15.5t71.5 -15t53.5 -40.5t34 -60t12 -73.5t-12 -73.5t-34 -60t-53.5 -40.5t-71.5 -15t-71.5 15.5t-54 42t-34.5 60.5t-12 71z" />
    <glyph glyph-name="endash" unicode="&#xd0;" horiz-adv-x="500" 
d="M0 210h500v54h-500v-54z" />
    <glyph glyph-name="emdash" unicode="&#xd1;" horiz-adv-x="1000" 
d="M0 210h1000v54h-1000v-54z" />
    <glyph glyph-name="quotedblleft" unicode="&#xd2;" 
d="M241 708h-59l-77 -228h73zM415 708h-59l-77 -228h73z" />
    <glyph glyph-name="quotedblright" unicode="&#xd3;" 
d="M279 480h59l77 228h-73zM105 480h59l77 228h-73z" />
    <glyph glyph-name="quoteleft" unicode="&#xd4;" horiz-adv-x="260" 
d="M198 708h-60l-76 -228h72z" />
    <glyph glyph-name="quoteright" unicode="&#xd5;" horiz-adv-x="260" 
d="M62 480h59l77 228h-73z" />
    <glyph glyph-name="divide" unicode="&#xd6;" horiz-adv-x="666" 
d="M78 279h510v48h-510v-48zM282 457q0 -21 15 -36t36 -15t36 15t15 36t-15 36t-36 15t-36 -15t-15 -36zM282 149q0 -21 15 -36t36 -15t36 15t15 36t-15 36t-36 15q-21 -1 -36 -15t-15 -36z" />
    <glyph glyph-name="ydieresis" unicode="&#xd8;" horiz-adv-x="463" 
d="M448 462h-64l-149 -389l-153 389h-67l188 -464l-42 -107q-5 -14 -11.5 -27.5t-15.5 -24.5t-21 -18t-29 -7q-14 0 -27.5 3.5t-26.5 7.5l-6 -56q14 -4 29 -6.5t30 -2.5q50 0 80 26t47 71zM89 652q0 -20 14 -34t34 -14t34 14t14 34t-14 34t-34 14t-34 -14t-14 -34zM279 652
q0 -20 14 -34t34 -14t34 14t14 34t-14 34t-34 14t-34 -14t-14 -34z" />
    <glyph glyph-name="Ydieresis" unicode="&#xd9;" horiz-adv-x="574" 
d="M254 0h66v305l260 403h-74l-219 -336l-214 336h-79l260 -403v-305zM144 840q0 -20 14 -34t34 -14t34 14t14 34t-14 34t-34 14t-34 -14t-14 -34zM334 840q0 -20 14 -34t34 -14t34 14t14 34t-14 34t-34 14t-34 -14t-14 -34z" />
    <glyph glyph-name="fraction" unicode="&#xda;" horiz-adv-x="168" 
d="M-167 -6l45 -28l457 748l-46 28z" />
    <glyph glyph-name="currency" unicode="&#xdb;" 
d="M14 142l34 -37l57 56q33 -26 73 -39.5t82 -13.5t82 13.5t73 39.5l57 -56l34 37l-57 55q60 65 60 157t-60 157l57 55l-34 37l-57 -56q-33 26 -73 39.5t-82 13.5t-82 -13.5t-73 -39.5l-57 56l-34 -37l57 -55q-60 -65 -60 -157t60 -157zM71 354q0 40 15 75t41 61t60 41
t73 15t73 -15t60 -41t41 -61t15 -75t-15 -75t-41 -61t-60 -41t-73 -15t-73 15t-60 41t-41 61t-15 75z" />
    <glyph glyph-name="guilsinglleft" unicode="&#xdc;" horiz-adv-x="315" 
d="M200 34l44 27l-118 176l116 174l-42 29l-137 -203z" />
    <glyph glyph-name="guilsinglright" unicode="&#xdd;" horiz-adv-x="315" 
d="M115 440l-44 -27l118 -176l-116 -174l42 -29l137 203z" />
    <glyph glyph-name="fi" unicode="&#xde;" horiz-adv-x="519" 
d="M369 0h60v462h-60v-462zM354 645q0 -19 13 -32t32 -13t32 13t13 32t-13 32t-32 13t-32 -13t-13 -32zM114 0h60v408h108v54h-108v129q0 123 81 123q34 0 54 -10l12 52q-27 12 -69 12q-22 0 -46.5 -7.5t-44.5 -25.5t-33.5 -47.5t-13.5 -74.5v-151h-96v-54h96v-408z" />
    <glyph glyph-name="fl" unicode="&#xdf;" horiz-adv-x="519" 
d="M114 0h60v408h108v54h-108v129q0 123 81 123q34 0 54 -10l12 52q-27 12 -69 12q-22 0 -46.5 -7.5t-44.5 -25.5t-33.5 -47.5t-13.5 -74.5v-151h-96v-54h96v-408zM369 0h60v756h-60v-756z" />
    <glyph glyph-name="daggerdbl" unicode="&#xe0;" 
d="M230 -126h60v199h192v48h-192v340h192v48h-192v199h-60v-199h-192v-48h192v-340h-192v-48h192v-199z" />
    <glyph glyph-name="periodcentered" unicode="&#xe1;" horiz-adv-x="260" 
d="M82 318q0 -20 14 -34t34 -14t34 14t14 34t-14 34t-34 14t-34 -14t-14 -34z" />
    <glyph glyph-name="quotesinglbase" unicode="&#xe2;" horiz-adv-x="260" 
d="M62 -138h59l77 228h-73z" />
    <glyph glyph-name="quotedblbase" unicode="&#xe3;" 
d="M279 -138h59l77 228h-73zM105 -138h59l77 228h-73z" />
    <glyph glyph-name="perthousand" unicode="&#xe4;" horiz-adv-x="981" 
d="M66 -6l45 -28l457 748l-46 28zM306 141q0 -31 12 -59t33 -49t49 -33t59 -12q32 0 59.5 12t48.5 33t33 49t12 59q0 32 -12 59.5t-33 48.5t-48.5 33t-59.5 12q-31 0 -59 -12t-49 -33t-33 -48.5t-12 -59.5zM354 141q0 22 8.5 41t22.5 33.5t33 22.5t41 8t41 -8t33.5 -22.5
t22.5 -33.5t8 -41t-8 -41t-22.5 -33t-33.5 -22.5t-41 -8.5t-41 8.5t-33 22.5t-22.5 33t-8.5 41zM649 141q0 -31 12 -59t33 -49t49 -33t59 -12q32 0 59.5 12t48.5 33t33 49t12 59q0 32 -12 59.5t-33 48.5t-48.5 33t-59.5 12q-31 0 -59 -12t-49 -33t-33 -48.5t-12 -59.5z
M697 141q0 22 8.5 41t22.5 33.5t33 22.5t41 8t41 -8t33.5 -22.5t22.5 -33.5t8 -41t-8 -41t-22.5 -33t-33.5 -22.5t-41 -8.5t-41 8.5t-33 22.5t-22.5 33t-8.5 41zM26 567q0 -31 12 -59t33 -49t49 -33t59 -12q32 0 59.5 12t48.5 33t33 49t12 59q0 32 -12 59.5t-33 48.5
t-48.5 33t-59.5 12q-31 0 -59 -12t-49 -33t-33 -48.5t-12 -59.5zM74 567q0 22 8.5 41t22.5 33.5t33 22.5t41 8t41 -8t33.5 -22.5t22.5 -33.5t8 -41t-8 -41t-22.5 -33t-33.5 -22.5t-41 -8.5t-41 8.5t-33 22.5t-22.5 33t-8.5 41z" />
    <glyph glyph-name="Acircumflex" unicode="&#xe5;" horiz-adv-x="685" 
d="M5 0h69l80 188h375l77 -188h74l-298 708h-68zM505 248h-325l165 388zM200 752h59l81 108l81 -108h65l-108 144h-70z" />
    <glyph glyph-name="Ecircumflex" unicode="&#xe6;" horiz-adv-x="593" 
d="M97 0h449v60h-383v276h344v60h-344v252h367v60h-433v-708zM154 752h59l81 108l81 -108h65l-108 144h-70z" />
    <glyph glyph-name="Aacute" unicode="&#xe7;" horiz-adv-x="685" 
d="M5 0h69l80 188h375l77 -188h74l-298 708h-68zM505 248h-325l165 388zM285 752h50l134 144h-80z" />
    <glyph glyph-name="Edieresis" unicode="&#xe8;" horiz-adv-x="593" 
d="M97 0h449v60h-383v276h344v60h-344v252h367v60h-433v-708zM154 840q0 -20 14 -34t34 -14t34 14t14 34t-14 34t-34 14t-34 -14t-14 -34zM344 840q0 -20 14 -34t34 -14t34 14t14 34t-14 34t-34 14t-34 -14t-14 -34z" />
    <glyph glyph-name="Egrave" unicode="&#xe9;" horiz-adv-x="593" 
d="M97 0h449v60h-383v276h344v60h-344v252h367v60h-433v-708zM251 896h-80l134 -144h50z" />
    <glyph glyph-name="Iacute" unicode="&#xea;" horiz-adv-x="260" 
d="M97 0h66v708h-66v-708zM72 752h50l134 144h-80z" />
    <glyph glyph-name="Icircumflex" unicode="&#xeb;" horiz-adv-x="260" 
d="M97 0h66v708h-66v-708zM-13 752h59l81 108l81 -108h65l-108 144h-70z" />
    <glyph glyph-name="Idieresis" unicode="&#xec;" horiz-adv-x="260" 
d="M97 0h66v708h-66v-708zM-13 840q0 -20 14 -34t34 -14t34 14t14 34t-14 34t-34 14t-34 -14t-14 -34zM177 840q0 -20 14 -34t34 -14t34 14t14 34t-14 34t-34 14t-34 -14t-14 -34z" />
    <glyph glyph-name="Igrave" unicode="&#xed;" horiz-adv-x="260" 
d="M97 0h66v708h-66v-708zM84 896h-80l134 -144h50z" />
    <glyph glyph-name="Oacute" unicode="&#xee;" horiz-adv-x="834" 
d="M51 354q0 -81 27 -149t75 -117.5t115.5 -77.5t148.5 -28t148.5 28t115.5 77.5t75 117.5t27 149t-27 149.5t-75 118t-115.5 77t-148.5 27.5t-148.5 -27.5t-115.5 -77t-75 -118t-27 -149.5zM117 354q0 66 21 123t60 99t94.5 66t124.5 24t124.5 -24t94.5 -66t60 -99t21 -123
t-21 -123t-60 -99t-94.5 -66t-124.5 -24t-124.5 24t-94.5 66t-60 99t-21 123zM359 752h50l134 144h-80z" />
    <glyph glyph-name="Ocircumflex" unicode="&#xef;" horiz-adv-x="834" 
d="M51 354q0 -81 27 -149t75 -117.5t115.5 -77.5t148.5 -28t148.5 28t115.5 77.5t75 117.5t27 149t-27 149.5t-75 118t-115.5 77t-148.5 27.5t-148.5 -27.5t-115.5 -77t-75 -118t-27 -149.5zM117 354q0 66 21 123t60 99t94.5 66t124.5 24t124.5 -24t94.5 -66t60 -99t21 -123
t-21 -123t-60 -99t-94.5 -66t-124.5 -24t-124.5 24t-94.5 66t-60 99t-21 123zM274 752h59l81 108l81 -108h65l-108 144h-70z" />
    <glyph glyph-name="Ograve" unicode="&#xf1;" horiz-adv-x="834" 
d="M51 354q0 -81 27 -149t75 -117.5t115.5 -77.5t148.5 -28t148.5 28t115.5 77.5t75 117.5t27 149t-27 149.5t-75 118t-115.5 77t-148.5 27.5t-148.5 -27.5t-115.5 -77t-75 -118t-27 -149.5zM117 354q0 66 21 123t60 99t94.5 66t124.5 24t124.5 -24t94.5 -66t60 -99t21 -123
t-21 -123t-60 -99t-94.5 -66t-124.5 -24t-124.5 24t-94.5 66t-60 99t-21 123zM371 896h-80l134 -144h50z" />
    <glyph glyph-name="Uacute" unicode="&#xf2;" horiz-adv-x="684" 
d="M600 708h-66v-420q0 -38 -7 -81t-27.5 -80t-58 -61t-99.5 -24t-99.5 24t-58 61t-27.5 80t-7 81v420h-66v-437q0 -57 13 -109t43.5 -92t80 -64t121.5 -24t121.5 24t80 64t43.5 92t13 109v437zM284 752h50l134 144h-80z" />
    <glyph glyph-name="Ucircumflex" unicode="&#xf3;" horiz-adv-x="684" 
d="M600 708h-66v-420q0 -38 -7 -81t-27.5 -80t-58 -61t-99.5 -24t-99.5 24t-58 61t-27.5 80t-7 81v420h-66v-437q0 -57 13 -109t43.5 -92t80 -64t121.5 -24t121.5 24t80 64t43.5 92t13 109v437zM199 752h59l81 108l81 -108h65l-108 144h-70z" />
    <glyph glyph-name="Ugrave" unicode="&#xf4;" horiz-adv-x="684" 
d="M600 708h-66v-420q0 -38 -7 -81t-27.5 -80t-58 -61t-99.5 -24t-99.5 24t-58 61t-27.5 80t-7 81v420h-66v-437q0 -57 13 -109t43.5 -92t80 -64t121.5 -24t121.5 24t80 64t43.5 92t13 109v437zM296 896h-80l134 -144h50z" />
    <glyph glyph-name="dotlessi" unicode="&#xf5;" horiz-adv-x="240" 
d="M90 0h60v462h-60v-462z" />
    <glyph glyph-name="circumflex" unicode="&#xf6;" horiz-adv-x="240" 
d="M-23 564h59l81 108l81 -108h65l-108 144h-70z" />
    <glyph glyph-name="tilde" unicode="&#xf7;" horiz-adv-x="240" 
d="M0 581q5 18 16.5 33t34.5 15q15 0 31.5 -8t34.5 -16t36.5 -16t38.5 -8t34.5 9t25 23.5t16.5 33t8 36.5h-36q-4 -18 -15 -33t-33 -15q-14 0 -30 7.5t-33 15.5q-17 9 -36 17t-39 8t-36 -9.5t-27 -24.5q-11 -14 -18 -32.5t-9 -35.5h36z" />
    <glyph glyph-name="macron" unicode="&#xf8;" horiz-adv-x="240" 
d="M252 654h-264v-48h264v48z" />
    <glyph glyph-name="breve" unicode="&#xf9;" horiz-adv-x="240" 
d="M-24 708q3 -60 43 -93t99 -33q60 0 99.5 33t46.5 93h-42q-10 -44 -34.5 -61t-69.5 -17q-39 0 -66.5 19t-33.5 59h-42z" />
    <glyph glyph-name="dotaccent" unicode="&#xfa;" horiz-adv-x="240" 
d="M75 652q0 -20 14 -34t34 -14t34 14t14 34t-14 34t-34 14t-34 -14t-14 -34z" />
    <glyph glyph-name="ring" unicode="&#xfb;" horiz-adv-x="240" 
d="M27 649q0 -19 7.5 -36.5t20 -30.5t30 -20.5t36.5 -7.5t36 8t29.5 21t19.5 30t7 35q0 19 -7 36t-19.5 30.5t-29 21.5t-36.5 8q-19 0 -36.5 -7.5t-30 -20.5t-20 -30.5t-7.5 -36.5zM177 649q0 -25 -16 -42t-41 -17q-24 0 -40.5 16.5t-16.5 41.5t16 42.5t41 17.5t41 -17
t16 -42z" />
    <glyph glyph-name="cedilla" unicode="&#xfc;" horiz-adv-x="240" 
d="M171 0h-38l-63 -88l16 -15q21 8 44 8q20 0 38 -9.5t18 -32.5q0 -12 -6 -20t-15.5 -13t-20.5 -7.5t-21 -2.5q-43 0 -76 17l-14 -32q45 -21 95 -21q20 0 39.5 5t36 15t26.5 26t10 39q0 36 -25.5 54t-57.5 18q-18 0 -31 -7l-2 2z" />
    <glyph glyph-name="hungarumlaut" unicode="&#xfd;" horiz-adv-x="240" 
d="M-11 564h50l134 144h-80zM135 564h50l134 144h-80z" />
    <glyph glyph-name="ogonek" unicode="&#xfe;" horiz-adv-x="240" 
d="M168 -145q-7 -8 -20.5 -15.5t-34.5 -7.5q-43 0 -43 47q0 19 7.5 37.5t18.5 34t23.5 28.5t23.5 21h-45q-15 -12 -31 -26.5t-28.5 -31.5t-20.5 -36t-8 -40q0 -38 26 -60t66 -22q28 0 48.5 9.5t36.5 23.5z" />
    <glyph glyph-name="caron" unicode="&#xff;" horiz-adv-x="240" 
d="M259 708h-54l-86 -114l-83 114h-62l109 -144h70z" />
    <glyph glyph-name="aring" unicode="&#x152;" horiz-adv-x="519" 
d="M439 307q0 88 -50 127.5t-134 39.5q-45 0 -94 -16.5t-82 -48.5l35 -41q61 52 141 52q56 0 93 -26t37 -86v-28h-70q-34 0 -78.5 -4.5t-84 -20t-66.5 -46.5t-27 -84q0 -37 14.5 -63t37.5 -42.5t52 -24t59 -7.5q59 0 97.5 21t64.5 66h2q0 -40 6 -75h56q-3 20 -4.5 40
t-2.5 43t-1.5 50t-0.5 61v113zM385 232v-31q0 -29 -7 -57.5t-25.5 -51t-49.5 -36.5t-79 -14q-19 0 -37.5 5.5t-33.5 16t-24.5 27t-9.5 37.5q0 30 17 50t45.5 32t64.5 17t73 5h66zM167 649q0 -19 7.5 -36.5t20 -30.5t30 -20.5t36.5 -7.5t36 8t29.5 21t19.5 30t7 35
q0 19 -7 36t-19.5 30.5t-29 21.5t-36.5 8q-19 0 -36.5 -7.5t-30 -20.5t-20 -30.5t-7.5 -36.5zM317 649q0 -25 -16 -42t-41 -17q-24 0 -40.5 16.5t-16.5 41.5t16 42.5t41 17.5t41 -17t16 -42z" />
    <glyph glyph-name="uacute" unicode="&#x153;" horiz-adv-x="556" 
d="M471 462h-60v-231q0 -48 -12.5 -83.5t-34 -59t-51 -35t-62.5 -11.5q-36 0 -58.5 12.5t-35 33.5t-17.5 47.5t-5 54.5v272h-60v-275q0 -38 7.5 -74t27 -63.5t53.5 -44.5t88 -17q56 0 98 27.5t60 65.5h3q2 -7 2.5 -31t1.5 -50h60q0 9 -1 25.5t-1.5 35.5t-1.5 37.5t-1 31.5
v332zM220 564h50l134 144h-80z" />
    <glyph glyph-name="adieresis" unicode="&#x160;" horiz-adv-x="519" 
d="M439 307q0 88 -50 127.5t-134 39.5q-45 0 -94 -16.5t-82 -48.5l35 -41q61 52 141 52q56 0 93 -26t37 -86v-28h-70q-34 0 -78.5 -4.5t-84 -20t-66.5 -46.5t-27 -84q0 -37 14.5 -63t37.5 -42.5t52 -24t59 -7.5q59 0 97.5 21t64.5 66h2q0 -40 6 -75h56q-3 20 -4.5 40
t-2.5 43t-1.5 50t-0.5 61v113zM385 232v-31q0 -29 -7 -57.5t-25.5 -51t-49.5 -36.5t-79 -14q-19 0 -37.5 5.5t-33.5 16t-24.5 27t-9.5 37.5q0 30 17 50t45.5 32t64.5 17t73 5h66zM117 652q0 -20 14 -34t34 -14t34 14t14 34t-14 34t-34 14t-34 -14t-14 -34zM307 652
q0 -20 14 -34t34 -14t34 14t14 34t-14 34t-34 14t-34 -14t-14 -34z" />
    <glyph glyph-name="odieresis" unicode="&#x161;" horiz-adv-x="594" 
d="M54 231q0 -53 18 -97.5t50.5 -77t77 -50.5t97.5 -18t98 18t77 50.5t50 77t18 97.5t-18 97.5t-50 77t-77 50.5t-98 18t-97.5 -18t-77 -50.5t-50.5 -77t-18 -97.5zM114 231q0 39 12.5 73.5t36.5 60t58 40.5t76 15t76 -15t58 -40.5t36.5 -60t12.5 -73.5t-12.5 -73.5
t-36.5 -60t-58 -40.5t-76 -15t-76 15t-58 40.5t-36.5 60t-12.5 73.5zM154 652q0 -20 14 -34t34 -14t34 14t14 34t-14 34t-34 14t-34 -14t-14 -34zM344 652q0 -20 14 -34t34 -14t34 14t14 34t-14 34t-34 14t-34 -14t-14 -34z" />
    <glyph glyph-name="udieresis" unicode="&#x178;" horiz-adv-x="556" 
d="M471 462h-60v-231q0 -48 -12.5 -83.5t-34 -59t-51 -35t-62.5 -11.5q-36 0 -58.5 12.5t-35 33.5t-17.5 47.5t-5 54.5v272h-60v-275q0 -38 7.5 -74t27 -63.5t53.5 -44.5t88 -17q56 0 98 27.5t60 65.5h3q2 -7 2.5 -31t1.5 -50h60q0 9 -1 25.5t-1.5 35.5t-1.5 37.5t-1 31.5
v332zM135 652q0 -20 14 -34t34 -14t34 14t14 34t-14 34t-34 14t-34 -14t-14 -34zM325 652q0 -20 14 -34t34 -14t34 14t14 34t-14 34t-34 14t-34 -14t-14 -34z" />
    <glyph glyph-name="Eacute" unicode="&#x192;" horiz-adv-x="593" 
d="M97 0h449v60h-383v276h344v60h-344v252h367v60h-433v-708zM239 752h50l134 144h-80z" />
    <glyph glyph-name="agrave" unicode="&#x2c6;" horiz-adv-x="519" 
d="M439 307q0 88 -50 127.5t-134 39.5q-45 0 -94 -16.5t-82 -48.5l35 -41q61 52 141 52q56 0 93 -26t37 -86v-28h-70q-34 0 -78.5 -4.5t-84 -20t-66.5 -46.5t-27 -84q0 -37 14.5 -63t37.5 -42.5t52 -24t59 -7.5q59 0 97.5 21t64.5 66h2q0 -40 6 -75h56q-3 20 -4.5 40
t-2.5 43t-1.5 50t-0.5 61v113zM385 232v-31q0 -29 -7 -57.5t-25.5 -51t-49.5 -36.5t-79 -14q-19 0 -37.5 5.5t-33.5 16t-24.5 27t-9.5 37.5q0 30 17 50t45.5 32t64.5 17t73 5h66zM214 708h-80l134 -144h50z" />
    <glyph glyph-name="ograve" unicode="&#x2dc;" horiz-adv-x="594" 
d="M54 231q0 -53 18 -97.5t50.5 -77t77 -50.5t97.5 -18t98 18t77 50.5t50 77t18 97.5t-18 97.5t-50 77t-77 50.5t-98 18t-97.5 -18t-77 -50.5t-50.5 -77t-18 -97.5zM114 231q0 39 12.5 73.5t36.5 60t58 40.5t76 15t76 -15t58 -40.5t36.5 -60t12.5 -73.5t-12.5 -73.5
t-36.5 -60t-58 -40.5t-76 -15t-76 15t-58 40.5t-36.5 60t-12.5 73.5zM251 708h-80l134 -144h50z" />
    <glyph glyph-name="ntilde" unicode="&#x2013;" horiz-adv-x="556" 
d="M80 0h60v231q0 48 12.5 83.5t34 59t51 35t62.5 11.5q36 0 58.5 -12.5t35 -33.5t17.5 -47.5t5 -54.5v-272h60v275q0 38 -7 74t-26.5 63.5t-54 44.5t-88.5 17q-56 0 -98 -27.5t-60 -65.5h-3q-2 7 -2.5 31t-1.5 50h-60q0 -9 1 -25.5t1.5 -35.5t1.5 -37.5t1 -31.5v-332z
M158 581q5 18 16.5 33t34.5 15q15 0 31.5 -8t34.5 -16t36.5 -16t38.5 -8t34.5 9t25 23.5t16.5 33t8 36.5h-36q-4 -18 -15 -33t-33 -15q-14 0 -30 7.5t-33 15.5q-17 9 -36 17t-39 8t-36 -9.5t-27 -24.5q-11 -14 -18 -32.5t-9 -35.5h36z" />
    <glyph glyph-name="oacute" unicode="&#x2014;" horiz-adv-x="594" 
d="M54 231q0 -53 18 -97.5t50.5 -77t77 -50.5t97.5 -18t98 18t77 50.5t50 77t18 97.5t-18 97.5t-50 77t-77 50.5t-98 18t-97.5 -18t-77 -50.5t-50.5 -77t-18 -97.5zM114 231q0 39 12.5 73.5t36.5 60t58 40.5t76 15t76 -15t58 -40.5t36.5 -60t12.5 -73.5t-12.5 -73.5
t-36.5 -60t-58 -40.5t-76 -15t-76 15t-58 40.5t-36.5 60t-12.5 73.5zM239 564h50l134 144h-80z" />
    <glyph glyph-name="edieresis" unicode="&#x2018;" horiz-adv-x="556" 
d="M444 124q-23 -38 -66 -60t-89 -22q-52 0 -86 20t-54 48t-27.5 57.5t-7.5 48.5h388v42q0 40 -14 79t-41.5 69.5t-68 49t-93.5 18.5q-51 0 -93 -18.5t-73 -51t-48 -76.5t-17 -96q0 -54 16.5 -98.5t47.5 -77t74 -50.5t96 -18q62 0 113.5 23t86.5 76zM114 270q0 9 8 33.5
t27 50.5t51.5 46t81.5 20q33 0 62.5 -12t51 -32.5t34 -47.5t12.5 -58h-328zM135 652q0 -20 14 -34t34 -14t34 14t14 34t-14 34t-34 14t-34 -14t-14 -34zM325 652q0 -20 14 -34t34 -14t34 14t14 34t-14 34t-34 14t-34 -14t-14 -34z" />
    <glyph glyph-name="iacute" unicode="&#x2019;" horiz-adv-x="240" 
d="M90 0h60v462h-60v-462zM62 564h50l134 144h-80z" />
    <glyph glyph-name="Ccedilla" unicode="&#x201a;" horiz-adv-x="704" 
d="M626 152q-19 -28 -44 -49t-52.5 -34.5t-56.5 -20t-56 -6.5q-69 0 -124.5 24t-94.5 66t-60 99t-21 123t21 123t60 99t94.5 66t124.5 24q54 0 105.5 -23t84.5 -73l54 45q-47 60 -109.5 85.5t-134.5 25.5q-81 0 -148.5 -27.5t-115.5 -77t-75 -118t-27 -149.5q0 -73 22 -136
t62 -111t96.5 -79.5t124.5 -40.5l-54 -75l16 -15q21 8 44 8q20 0 38 -9.5t18 -32.5q0 -12 -6 -20t-15.5 -13t-20.5 -7.5t-21 -2.5q-43 0 -76 17l-14 -32q45 -21 95 -21q20 0 39.5 5t36 15t26.5 26t10 39q0 36 -25.5 54t-57.5 18q-18 0 -31 -7l-2 2l34 47q7 -1 13 -1h14
q78 0 145 30t118 99z" />
    <glyph glyph-name="igrave" unicode="&#x201c;" horiz-adv-x="240" 
d="M90 0h60v462h-60v-462zM74 708h-80l134 -144h50z" />
    <glyph glyph-name="icircumflex" unicode="&#x201d;" horiz-adv-x="240" 
d="M90 0h60v462h-60v-462zM-23 564h59l81 108l81 -108h65l-108 144h-70z" />
    <glyph glyph-name="Ntilde" unicode="&#x201e;" horiz-adv-x="778" 
d="M97 0h66v620h2l431 -620h85v708h-66v-620h-2l-431 620h-85v-708zM269 769q5 18 16.5 33t34.5 15q15 0 31.5 -8t34.5 -16t36.5 -16t38.5 -8t34.5 9t25 23.5t16.5 33t8 36.5h-36q-4 -18 -15 -33t-33 -15q-14 0 -30 7.5t-33 15.5q-17 9 -36 17t-39 8t-36 -9.5t-27 -24.5
q-11 -14 -18 -32.5t-9 -35.5h36z" />
    <glyph glyph-name="Udieresis" unicode="&#x2020;" horiz-adv-x="684" 
d="M600 708h-66v-420q0 -38 -7 -81t-27.5 -80t-58 -61t-99.5 -24t-99.5 24t-58 61t-27.5 80t-7 81v420h-66v-437q0 -57 13 -109t43.5 -92t80 -64t121.5 -24t121.5 24t80 64t43.5 92t13 109v437zM199 840q0 -20 14 -34t34 -14t34 14t14 34t-14 34t-34 14t-34 -14t-14 -34z
M389 840q0 -20 14 -34t34 -14t34 14t14 34t-14 34t-34 14t-34 -14t-14 -34z" />
    <glyph glyph-name="aacute" unicode="&#x2021;" horiz-adv-x="519" 
d="M439 307q0 88 -50 127.5t-134 39.5q-45 0 -94 -16.5t-82 -48.5l35 -41q61 52 141 52q56 0 93 -26t37 -86v-28h-70q-34 0 -78.5 -4.5t-84 -20t-66.5 -46.5t-27 -84q0 -37 14.5 -63t37.5 -42.5t52 -24t59 -7.5q59 0 97.5 21t64.5 66h2q0 -40 6 -75h56q-3 20 -4.5 40
t-2.5 43t-1.5 50t-0.5 61v113zM385 232v-31q0 -29 -7 -57.5t-25.5 -51t-49.5 -36.5t-79 -14q-19 0 -37.5 5.5t-33.5 16t-24.5 27t-9.5 37.5q0 30 17 50t45.5 32t64.5 17t73 5h66zM202 564h50l134 144h-80z" />
    <glyph glyph-name="idieresis" unicode="&#x2022;" horiz-adv-x="240" 
d="M90 0h60v462h-60v-462zM-23 652q0 -20 14 -34t34 -14t34 14t14 34t-14 34t-34 14t-34 -14t-14 -34zM167 652q0 -20 14 -34t34 -14t34 14t14 34t-14 34t-34 14t-34 -14t-14 -34z" />
    <glyph glyph-name="Odieresis" unicode="&#x2026;" horiz-adv-x="834" 
d="M51 354q0 -81 27 -149t75 -117.5t115.5 -77.5t148.5 -28t148.5 28t115.5 77.5t75 117.5t27 149t-27 149.5t-75 118t-115.5 77t-148.5 27.5t-148.5 -27.5t-115.5 -77t-75 -118t-27 -149.5zM117 354q0 66 21 123t60 99t94.5 66t124.5 24t124.5 -24t94.5 -66t60 -99t21 -123
t-21 -123t-60 -99t-94.5 -66t-124.5 -24t-124.5 24t-94.5 66t-60 99t-21 123zM274 840q0 -20 14 -34t34 -14t34 14t14 34t-14 34t-34 14t-34 -14t-14 -34zM464 840q0 -20 14 -34t34 -14t34 14t14 34t-14 34t-34 14t-34 -14t-14 -34z" />
    <glyph glyph-name="acircumflex" unicode="&#x2030;" horiz-adv-x="519" 
d="M439 307q0 88 -50 127.5t-134 39.5q-45 0 -94 -16.5t-82 -48.5l35 -41q61 52 141 52q56 0 93 -26t37 -86v-28h-70q-34 0 -78.5 -4.5t-84 -20t-66.5 -46.5t-27 -84q0 -37 14.5 -63t37.5 -42.5t52 -24t59 -7.5q59 0 97.5 21t64.5 66h2q0 -40 6 -75h56q-3 20 -4.5 40
t-2.5 43t-1.5 50t-0.5 61v113zM385 232v-31q0 -29 -7 -57.5t-25.5 -51t-49.5 -36.5t-79 -14q-19 0 -37.5 5.5t-33.5 16t-24.5 27t-9.5 37.5q0 30 17 50t45.5 32t64.5 17t73 5h66zM117 564h59l81 108l81 -108h65l-108 144h-70z" />
    <glyph glyph-name="atilde" unicode="&#x2039;" horiz-adv-x="519" 
d="M439 307q0 88 -50 127.5t-134 39.5q-45 0 -94 -16.5t-82 -48.5l35 -41q61 52 141 52q56 0 93 -26t37 -86v-28h-70q-34 0 -78.5 -4.5t-84 -20t-66.5 -46.5t-27 -84q0 -37 14.5 -63t37.5 -42.5t52 -24t59 -7.5q59 0 97.5 21t64.5 66h2q0 -40 6 -75h56q-3 20 -4.5 40
t-2.5 43t-1.5 50t-0.5 61v113zM385 232v-31q0 -29 -7 -57.5t-25.5 -51t-49.5 -36.5t-79 -14q-19 0 -37.5 5.5t-33.5 16t-24.5 27t-9.5 37.5q0 30 17 50t45.5 32t64.5 17t73 5h66zM140 581q5 18 16.5 33t34.5 15q15 0 31.5 -8t34.5 -16t36.5 -16t38.5 -8t34.5 9t25 23.5
t16.5 33t8 36.5h-36q-4 -18 -15 -33t-33 -15q-14 0 -30 7.5t-33 15.5q-17 9 -36 17t-39 8t-36 -9.5t-27 -24.5q-11 -14 -18 -32.5t-9 -35.5h36z" />
    <glyph glyph-name="otilde" unicode="&#x203a;" horiz-adv-x="594" 
d="M54 231q0 -53 18 -97.5t50.5 -77t77 -50.5t97.5 -18t98 18t77 50.5t50 77t18 97.5t-18 97.5t-50 77t-77 50.5t-98 18t-97.5 -18t-77 -50.5t-50.5 -77t-18 -97.5zM114 231q0 39 12.5 73.5t36.5 60t58 40.5t76 15t76 -15t58 -40.5t36.5 -60t12.5 -73.5t-12.5 -73.5
t-36.5 -60t-58 -40.5t-76 -15t-76 15t-58 40.5t-36.5 60t-12.5 73.5zM177 581q5 18 16.5 33t34.5 15q15 0 31.5 -8t34.5 -16t36.5 -16t38.5 -8t34.5 9t25 23.5t16.5 33t8 36.5h-36q-4 -18 -15 -33t-33 -15q-14 0 -30 7.5t-33 15.5q-17 9 -36 17t-39 8t-36 -9.5t-27 -24.5
q-11 -14 -18 -32.5t-9 -35.5h36z" />
    <glyph glyph-name="ocircumflex" unicode="&#x2122;" horiz-adv-x="594" 
d="M54 231q0 -53 18 -97.5t50.5 -77t77 -50.5t97.5 -18t98 18t77 50.5t50 77t18 97.5t-18 97.5t-50 77t-77 50.5t-98 18t-97.5 -18t-77 -50.5t-50.5 -77t-18 -97.5zM114 231q0 39 12.5 73.5t36.5 60t58 40.5t76 15t76 -15t58 -40.5t36.5 -60t12.5 -73.5t-12.5 -73.5
t-36.5 -60t-58 -40.5t-76 -15t-76 15t-58 40.5t-36.5 60t-12.5 73.5zM154 564h59l81 108l81 -108h65l-108 144h-70z" />
  </font>
</defs>
</svg>
